<svg id="레이어_1" data-name="레이어 1" xmlns="http://www.w3.org/2000/svg" viewBox="0 0 512 256"><defs><style>.cls-1{fill:#1f3b4a;}.cls-2{fill:#1f3c4b;}</style></defs><path class="cls-1" d="M.06,81l5.68,0H21.87a28.24,28.24,0,0,1,9.89,1.58c6.06,2.26,9.58,6.74,11.2,12.86A30.09,30.09,0,0,1,44,103c0,5,0,9.93,0,14.9a28.44,28.44,0,0,1-1.74,9.78c-2.38,6.26-7,9.93-13.45,11.36a30.71,30.71,0,0,1-6.69.7c-2.16,0-4.31,0-6.47,0-.56,0-.69.15-.69.7q0,16.8,0,33.61c0,1,0,1-1,1H1c-.26,0-.52,0-.78-.05V82.24c0-.31.13-.66-.14-.95Zm14.86,29.36v15.24c0,.33-.12.69.49.68,2.51,0,5,0,7.53-.05a5.75,5.75,0,0,0,5.81-4.76,16.2,16.2,0,0,0,.43-3.86V103.16A17.71,17.71,0,0,0,28.9,100c-.51-3-2-4.7-4.69-5.3A10.6,10.6,0,0,0,22,94.47c-2.11,0-4.22,0-6.32,0-.6,0-.74.15-.74.74C14.93,100.25,14.92,105.31,14.92,110.37Z"/><path class="cls-2" d="M.06,81.29c.27.29.14.64.14.95V175L.06,175Z"/><path class="cls-1" d="M143.45,128c0-8.39,0-16.78,0-25.17a29.67,29.67,0,0,1,1.83-10.55A17.76,17.76,0,0,1,158,80.92a28.81,28.81,0,0,1,16.25.33c6.54,2.09,10.43,6.72,12.27,13.2A32.08,32.08,0,0,1,187.6,103c0,3,0,6,0,9.07,0,.51-.09.69-.65.69q-6.36,0-12.71,0c-.56,0-.67-.18-.66-.69q0-5.38,0-10.77a10.75,10.75,0,0,0-.48-2.93c-1-3.48-3.8-5.26-7.69-5q-6.52.5-7,7.37c-.06.8-.08,1.6-.08,2.4q0,25,0,50a14.89,14.89,0,0,0,.65,4.82,6.13,6.13,0,0,0,5,4.34,10.6,10.6,0,0,0,4.72-.13c2.71-.71,4.07-2.65,4.68-5.25a17.4,17.4,0,0,0,.34-3.94c0-5.42,0-10.83,0-16.24,0-.54-.12-.73-.7-.72-1.82,0-3.65,0-5.47,0-.47,0-.59-.12-.59-.58q0-6.13,0-12.27c0-.5.18-.57.61-.57q9.76,0,19.53,0c.52,0,.62.15.62.63,0,10,0,19.91,0,29.86a29.32,29.32,0,0,1-1.87,10.68,17.71,17.71,0,0,1-12.42,11.25,29,29,0,0,1-15.5,0c-7.28-2-11.53-6.94-13.38-14.11a35,35,0,0,1-1-8.64q0-12.16,0-24.32Z"/><path class="cls-1" d="M136.59,118.89c0,11.39,0,22.78,0,34.17a29.77,29.77,0,0,1-2,11.16,17.57,17.57,0,0,1-11.83,10.85,28.84,28.84,0,0,1-16.39.05c-6.84-2-10.94-6.7-12.83-13.44a34.63,34.63,0,0,1-1.13-9.4q0-35.24,0-70.48c0-.61.12-.79.76-.78q6.61,0,13.22,0c.67,0,.86.14.86.84q0,35.7,0,71.4a16.6,16.6,0,0,0,.32,3.59c.83,3.82,3,5.62,6.86,5.82a10.06,10.06,0,0,0,3.09-.31c2.75-.71,4.13-2.65,4.74-5.28a18.75,18.75,0,0,0,.34-4.16v-71c0-1-.11-.9.9-.9,4.12,0,8.24,0,12.36,0,.65,0,.76.18.76.78q0,18.54,0,37.09Z"/><path class="cls-1" d="M460.74,175c-2.25,0-4.5,0-6.75,0-.53,0-.72-.14-.79-.66-.57-3.92-1.16-7.85-1.74-11.77-.21-1.35-.42-2.71-.6-4.06-.06-.43-.22-.57-.67-.57q-8.54,0-17.05,0c-.47,0-.58.16-.64.58-.63,4.28-1.28,8.55-1.92,12.82-.16,1.05-.32,2.1-.46,3.15-.05.37-.18.51-.58.51q-6.29,0-12.57,0c-.52,0-.51-.2-.45-.58q.89-5.44,1.75-10.91,1.47-9.09,2.92-18.17,1.55-9.55,3.07-19.09,1.46-9.06,2.9-18.11,1.53-9.51,3-19c.4-2.51.82-5,1.2-7.55.07-.41.19-.56.62-.56H452.7c.41,0,.52.18.58.52q1.14,7.22,2.3,14.41,1.53,9.58,3.07,19.16c1.07,6.64,2.12,13.28,3.19,19.92S464,148.31,465,154.93s2.1,13.1,3.17,19.64c.08.5-.16.47-.5.47ZM441.65,98h-.09L439,115.39q-1.23,8.27-2.48,16.52-.95,6.34-1.91,12.67c-.06.4-.13.69.49.69,4.38,0,8.76,0,13.14,0,.41,0,.56,0,.48-.53-.38-2.29-.7-4.58-1-6.86q-1.26-8.34-2.5-16.67-1.32-8.74-2.63-17.5C442.22,101.81,441.93,99.93,441.65,98Z"/><path class="cls-1" d="M322.61,128.1q0-23.11,0-46.23c0-.64.15-.82.81-.82,7.77.07,15.53-.13,23.3.12A21.44,21.44,0,0,1,358,84.51c4.24,2.78,6.51,6.86,7.66,11.66a32,32,0,0,1,.84,7.23c0,4.78,0,9.55,0,14.32a28.93,28.93,0,0,1-1.6,9.53c-2.39,6.7-7.23,10.52-14.12,11.9a31.43,31.43,0,0,1-6.64.58c-2,0-4.07,0-6.1,0-.46,0-.67.11-.6.58a3.09,3.09,0,0,1,0,.43q0,16.72,0,33.46c0,.75-.22.87-.9.87-4.38,0-8.76,0-13.14,0-.64,0-.81-.14-.81-.8Q322.62,151.18,322.61,128.1Zm14.81-17.67v15.24c0,.32-.1.66.45.65,2.63,0,5.26.1,7.89-.08a5.62,5.62,0,0,0,5.39-4.36,15.29,15.29,0,0,0,.55-4.41c0-4.7,0-9.41,0-14.11a19.5,19.5,0,0,0-.27-3.24c-.55-3.42-2.3-5.16-5.73-5.53-2.52-.27-5.06,0-7.59-.11-.56,0-.71.14-.71.7Q337.43,102.8,337.42,110.43Z"/><path class="cls-2" d="M486.36,123.65q1.45-5.52,2.9-11,4.07-15.42,8.12-30.85c.17-.62.43-.75,1-.74,4.19,0,8.38,0,12.57,0,.7,0,.74.16.56.77q-9.18,30.74-18.33,61.48a4.56,4.56,0,0,0-.17,1.32c0,9.86,0,19.72,0,29.57,0,.75-.22.87-.9.87-4.4,0-8.81,0-13.21,0-.58,0-.75-.13-.75-.73,0-9.83,0-19.66,0-29.49a9,9,0,0,0-.52-2.69q-9-30.16-18-60.32c-.19-.64-.08-.77.58-.77q7,0,13.92,0a.85.85,0,0,1,1,.77q5.4,20.57,10.84,41.11C486.1,123.16,486.06,123.46,486.36,123.65Z"/><path class="cls-2" d="M263.3,134.34c0-14,0-28,0-41.9,0-.66.17-.81.81-.8,2.87,0,5.73,0,8.6,0,.51,0,.72.07.72.67q0,35.35,0,70.7c0,.52-.12.68-.66.67q-5.11,0-10.23,0a.85.85,0,0,1-1-.75q-4.95-18.45-10-36.87-1.81-6.74-3.65-13.45a1.22,1.22,0,0,0-.3-.7v.92q0,25,0,50c0,.74-.21.88-.9.87-2.89,0-5.78,0-8.67,0-.53,0-.67-.13-.67-.67q0-35.37,0-70.76c0-.52.17-.61.64-.61,4.31,0,8.62,0,12.93,0,.57,0,.75.2.89.71q5.53,20.59,11.12,41.18A1.32,1.32,0,0,0,263.3,134.34Z"/><path class="cls-1" d="M280,127.73q0-17.58,0-35.17c0-.68.16-.86.85-.85,6.32.06,12.65-.1,19,.1a16.14,16.14,0,0,1,8.53,2.53c3.49,2.28,5.22,5.67,6,9.63a28.67,28.67,0,0,1,.51,5.85q0,17.9,0,35.8a26.63,26.63,0,0,1-.9,7.43c-1.62,5.68-5.38,9-11.15,10.22a24.74,24.74,0,0,1-4.94.44c-5.7,0-11.41,0-17.11,0-.61,0-.79-.12-.79-.77Q280,145.35,280,127.73Zm11.36,0v25c0,.34-.12.7.49.69,2.05,0,4.12,0,6.18,0,2.72-.07,4.3-1.22,5-3.55a12.37,12.37,0,0,0,.47-3.78V109.37a20,20,0,0,0-.12-2.19c-.38-3.48-2.27-5.17-5.79-5.17-1.82,0-3.65,0-5.47,0-.62,0-.82.12-.82.79C291.35,111.1,291.34,119.42,291.34,127.74Z"/><path class="cls-1" d="M49.51,128q0-23.09,0-46.16c0-.66.13-.86.83-.85q6.57,0,13.14,0c.69,0,.86.15.86.84q0,39.35,0,78.7c0,1,0,1,1.06,1,7.53,0,15.06,0,22.59,0,.57,0,.75.13.75.73q0,6,0,12c0,.51-.1.69-.65.68q-19,0-37.93,0c-.71,0-.6-.36-.6-.78Z"/><path class="cls-1" d="M372,128q0-23.09,0-46.16c0-.63.14-.82.8-.82q6.62.06,13.22,0c.66,0,.8.18.8.82q0,39.39,0,78.77c0,1,0,1,1,1,7.55,0,15.1,0,22.66,0,.57,0,.76.13.75.73q0,6,0,12.06c0,.52-.12.66-.66.66q-18.93,0-37.86,0c-.62,0-.66-.23-.66-.73Q372,151.19,372,128Z"/><path class="cls-1" d="M228,163.71c-1.71,0-3.41,0-5.11,0-.43,0-.6-.08-.67-.56-.58-4-1.2-8-1.78-12-.06-.42-.18-.55-.61-.55q-6.42,0-12.85,0c-.47,0-.58.16-.65.59-.58,4-1.19,7.93-1.77,11.91-.07.48-.24.59-.7.58-3.06,0-6.11,0-9.17,0-.51,0-.64-.12-.55-.62q1-5.91,1.91-11.81,1.53-9.51,3.05-19,1.45-9,2.9-18.1,1.53-9.58,3.07-19.16c.15-.93.31-1.86.44-2.8.05-.38.23-.49.61-.49q7.77,0,15.55,0c.41,0,.56.1.63.53q1.38,8.75,2.8,17.48,1.53,9.51,3,19t3.06,19c.83,5.15,1.64,10.3,2.48,15.44.07.44,0,.52-.43.52C231.52,163.7,229.77,163.71,228,163.71Zm-14.6-58.81-.08,0c-.05.22-.11.45-.14.67q-.88,5.89-1.76,11.77-1.73,11.52-3.48,23c-.06.37,0,.55.43.55,3.31,0,6.63,0,9.94,0,.38,0,.49-.09.42-.48-.17-1-.3-2-.45-3l-2.49-16.59Q214.61,112.85,213.42,104.9Z"/></svg>