<svg id="레이어_1" data-name="레이어 1" xmlns="http://www.w3.org/2000/svg" viewBox="0 0 512 256"><defs><style>.cls-1{fill:#8b115b;}.cls-2{fill:#d0007b;}.cls-3{fill:#d43189;}.cls-4{fill:#212041;}.cls-5{fill:#f5f5f5;}</style></defs><path class="cls-1" d="M35.65,106.91c.2-8,.14-16,0-23.92a7.72,7.72,0,0,1,1-2.73c1.49.8,3,1.57,4.46,2.41,4,2.31,8.06,4.65,12.09,7l.09,7.64c.42,1.38,1.83,1.42,2.82,2,3.65,2.15,7.35,4.23,11,6.34,0,2.65,0,5.3,0,8a2.51,2.51,0,0,1-1.55-.51c-2.14-1.23-4.27-2.5-6.42-3.73-1.43-.82-2.87-1.64-4.33-2.4-.29-.15-.72-.47-1.07-.15s-.14.71,0,1.08a21.16,21.16,0,0,0,3,6.36A22,22,0,0,0,67.24,122c-.85,2.48.1,5.07-.39,7.57l-5.22-2.93c-1.19-.66-1.73-.33-1.73,1,0,2,0,4-.08,5.93a19.26,19.26,0,0,1-3.89-2.11,2.07,2.07,0,0,0-1.69-.43c-2.39.64-4.79,1.25-7.19,1.8-.95.22-.84.63-.23,1,.92.6,1.91,1.1,2.87,1.63,3.41,1.86,6.63,4.06,10.16,5.71a18.64,18.64,0,0,1,.36,3.94c.3,4.13-.88,8.25,0,12.37a2.4,2.4,0,0,0-.28.77c0,5.18,0,10.36,0,15.55,0,.75.43.92,1,1,0,.34-.08.71.29.88,1.95.89,3.54,2.46,5.65,3,0,1.8-.15,3.6,0,5.38.07.76-.56,2.1,1,2.25-.45.56-.94.39-1.45.08-.75-.45-1.51-.9-2.28-1.34-8.61-5-17.21-9.95-25.85-14.86-1.84-1-2.83-2.23-2.59-4.51a12.26,12.26,0,0,0-.21-5.25c.56-.4.38-1,.38-1.53,0-7.56,0-15.12,0-22.68a3.66,3.66,0,0,0-.32-1.76l.06-9.32a6.86,6.86,0,0,0,0-4.32c-.1-1.5.56-3,.18-4.5a20.32,20.32,0,0,0-.14-3.82v-1.66A14.34,14.34,0,0,0,35.65,106.91ZM46.51,93.79c-1.09-1.56-2.47-2.06-3.86-1.46-1.08.47-1.7,2.25-1.32,3.79A3.37,3.37,0,0,0,45,98.83C43.35,96.13,44.26,94.94,46.51,93.79Z"/><path class="cls-2" d="M300,92.61c0-.19.07-.39.1-.59,5.93,0,11.86,0,17.78-.1,1,0,1,.48,1,1.23q0,11.31,0,22.61c0,.85-.3,1.19-1.07,1.57a41.13,41.13,0,0,1-11.36,3.45c-6.39,1-12.71,1-18.75-1.5-8.88-3.72-13.55-10.65-14.38-20.14-.66-7.55.89-14.49,6.29-20.2.08.43.25.82.75.42q2.57-2,5.08-4.16c.12-.1.06-.41.09-.63h0a3.27,3.27,0,0,0,1.95-.19,33.87,33.87,0,0,1,5.55-1.88c4.09-1,8.13-.53,12.15,0a23.93,23.93,0,0,1,9,3.1c1.82,1.08,2.26,2.51.81,4.11a22.75,22.75,0,0,1-2.64,2.72c-.88.67-1.76,2.26-3.55,1s-3.66-3.26-6.42-2.47c-.39.11-.72-.29-1.07-.36-2.57-.54-5.1-.62-7.38,1-1.08.15-1.8,1-2.66,1.5-3,1.81-5.3,4.2-6.08,7.76h0c-1.5,2.51-1.1,5.31-.84,7.92a12.83,12.83,0,0,0,6.53,10.48h0a2.67,2.67,0,0,0,.46.43c5.49,2.85,11,2.21,16.45,0,.73-.3.74-.86.74-1.49,0-1.77-.07-3.54,0-5.31,0-1.07-.39-1.3-1.35-1.27-2.33.06-4.65,0-7,0l-.27-.36A77.82,77.82,0,0,0,300,92.61Z"/><path class="cls-3" d="M53.19,89.65c-4-2.33-8-4.67-12.09-7-1.46-.84-3-1.61-4.46-2.41.76-1.5,2.39-1.51,3.67-2.13l.61-.13c3.84-.92,7.68-1.83,11.51-2.77,6.83-1.68,13.64-3.39,20.47-5.08l1.57,0c1.27.49,2.69.45,3.93,1.16,4.63,2.66,9.28,5.27,13.92,7.91A1.54,1.54,0,0,1,93,80.73c0,1.72.07,3.43,0,5.14a2.55,2.55,0,0,0,1.55,2.75c3.77,2,7.47,4.23,11.18,6.41.57.33,1.33.54,1.27,1.52-.08,1.43,0,2.88-.05,4.31a3.57,3.57,0,0,1-2.15,3.42c1.65-1.93,1.76-4.21,1.67-6.62,0-1.25-.56-1.57-1.61-1.37-.75.15-1.46.46-2.2.65-7.83,2-15.65,4-23.51,5.89-4,1-7.92,2.33-12,2.81-3.67-2.11-7.37-4.19-11-6.34-1-.59-2.4-.63-2.82-2a11.81,11.81,0,0,0,2.31-.13c4.2-1,8.38-2.19,12.57-3.26,4.47-1.14,9-2.16,13.4-3.39,3.24-.89,6.51-1.6,9.77-2.35.68-.16,1.2-.42,1.16-1.32-.07-1.55,0-3.1,0-4.65-.07-1.81-.57-2.17-2.29-1.72-2.44.63-4.93,1.09-7.37,1.78C77.92,83.61,73,84.73,68.07,86Z"/><path class="cls-4" d="M59.82,133.55c0-2,.08-4,.08-5.93,0-1.36.54-1.69,1.73-1l5.22,2.93c1.74.26,3.29-.61,5-.81l.4-.15,5.11-1.27c7.23-1.83,14.42-3.86,21.79-5.1l.73.3c.2,1.65-.29,3.35.36,5l-.12,16a10.15,10.15,0,0,0,0,3.39q-.27,8,0,16c0,.41-.09.83-.14,1.24-2.32.67-4.65,1.31-7,2-2.06.64-4.31.73-6.16,2-2.94.23-5.66,1.35-8.45,2.18-.1,0-.12.28-.18.44-1.66-.54-3.1.37-4.63.72L60.92,174.8c-.6-.07-1-.24-1-1,0-5.19,0-10.37,0-15.55a2.4,2.4,0,0,1,.28-.77l1.29-.16.38-.2a1.45,1.45,0,0,0,.3-.06l.4-.21c1.83-.08,3.45-1.08,5.27-1.25.73-.06,1.08-.64,1.07-1.43q-.08-7.34-.11-14.68c.12-.7-.48-.76-.88-1C65.26,136.81,62.34,135.5,59.82,133.55ZM74.51,165.4c.87-.15,1.52-.24,2.17-.38,2.64-.58,2.64-.59,2.64-3.3,0-1,0-2,0-3,0-.71.15-1.13.92-1.3,1.61-.38,3.19-.83,4.78-1.27.73-.2,1,0,1,.8,0,1.55,0,3.1,0,4.65,0,.72.2.94,1,.77,3.85-.84,3.85-.83,3.85-4.73a8.23,8.23,0,0,0,0-1.49c-.25-1.26.45-1.79,1.5-1.81,1.52,0,1.88-.77,1.67-2.1a9,9,0,0,1,0-1.16c0-2.09,0-2.16-2-1.73-1,.23-1.21-.08-1.2-1,0-2.65.07-5.31,0-8,0-.89.27-1.38,1.09-1.44,1.92-.15,2.42-1.2,2.1-2.94a6.59,6.59,0,0,1,0-1.66c.06-.77-.29-.88-1-.85s-1.56.94-2.06.18c-.36-.55-.11-1.5-.13-2.27v-1c0-3.19,0-3.12-3.16-2.26-1.25.34-1.88.77-1.69,2.2.17,1.25,0,2.54.06,3.81a1.15,1.15,0,0,1-1,1.39c-1.56.35-3.1.81-4.64,1.23-.67.18-1.06,0-1-.77,0-1,0-2,0-3,0-2.61,0-2.61-2.43-2.07a11.39,11.39,0,0,1-1.14.21c-.92.1-1.34.48-1.27,1.5.1,1.38,0,2.77.05,4.15.07,1.16-.27,1.7-1.53,1.76-.64,0-1.72,0-1.79,1-.11,1.5,0,3,0,4.6.73-.2,1.22-.29,1.67-.47,1.26-.51,1.77-.26,1.68,1.23a42.34,42.34,0,0,0,0,6.47c.19,1.94-.41,2.87-2.38,2.92-.43,0-1,0-1,.78,0,1.51,0,3,0,4.55a15.6,15.6,0,0,0,2-.41c1.1-.39,1.44-.08,1.37,1.09C74.44,162,74.51,163.64,74.51,165.4Z"/><path class="cls-1" d="M21.69,151.8c.15-3.22.15-6.43,0-9.65a22.19,22.19,0,0,1,.11-2.31,2.16,2.16,0,0,0-1.46-2.57c-1.73-.83-3.3-2-5-2.9a2.58,2.58,0,0,1-1.55-2.58c0-3.86.22-7.73-.09-11.6a10.62,10.62,0,0,0,0-3c.06-.67.13-1.34.2-2,.11-.25,0-.33-.23-.31-4.25-2.52-8.5-5.06-12.77-7.56C.33,107,0,106.7,0,106c0-4.55,0-9.09,0-13.63,0-.47-.15-1.08.68-1,0,.7.6.85,1.07,1.13l11.92,7.09c0,3.15,0,6.3,0,9.45,0,1,.61,2,.2,3.1a2.37,2.37,0,0,0,.47,2.45c0,.75.52,1,1.05,1.33l11.9,6.66a15.74,15.74,0,0,0,.36,4c-1.66,1-3.78.81-5.69,1.91,2.71,1.56,5.21,3,7.74,4.43,1.46.81,2.77,2,4.59,2-.77.52-.68,1.32-.68,2.09,0,6.59,0,13.18,0,19.77a6.63,6.63,0,0,1-.4,2.43c-3.5-2-7-4-10.51-5.94A2,2,0,0,1,21.69,151.8Z"/><path class="cls-2" d="M134.81,72.38a.14.14,0,0,0,.2,0,3.71,3.71,0,0,0,1.78.16c2.41,0,4.83.08,7.25.12a30.16,30.16,0,0,1,.33,3.43q-.06,16.23,0,32.47c0,.56-.45,1.39.58,1.63.59.45,1.28.26,1.93.26,5.35,0,10.71,0,16.06,0,1,0,1.53.18,1.49,1.34-.09,2.81-.08,5.63-.11,8.44l-.38.06-29.25,0,0,0c0-.33-.08-.66-.08-1q0-22.6,0-45.23A3.06,3.06,0,0,1,134.81,72.38Z"/><path class="cls-4" d="M472.84,121.93c-.65-.12-.5-.62-.5-1q0-24.72,0-49.45a4.5,4.5,0,0,1,.15-.8l4.33,0c.27.09.59,0,.59.52-.05,6.38-.06,12.77-.07,19.15a3.52,3.52,0,0,0,.1.65c0,.71-.68,1.55.38,2.07,5.72,0,11.45.09,17.18.1,2.91,0,5.83-.06,8.75-.1.85.15,1.82.46,1.38-1.07a2.67,2.67,0,0,0,0-1.63,6.42,6.42,0,0,0,0-2.69c.17-5.09.18-10.18,0-15.28l.27-1.68,4.33-.05c.86.39.47,1.17.47,1.76q0,23.36,0,46.71c0,.61.08,1.21.12,1.82v.64c-.91.73-2,.12-2.95.4h-1.33c-1.19-.06-.8-1-.81-1.61,0-7.14,0-14.28,0-21.41,0-1-.17-1.34-1.25-1.34q-12.78.08-25.56,0c-1.13,0-1.38.37-1,1.34q-.26,10.81,0,21.62l-.25,1.34-.37.05Z"/><path class="cls-4" d="M340.46,71c-.2,6.76-.18,13.51,0,20.26V92l0,.65c0,.91.62.44,1,.4,6.55,0,13.1.09,19.65.1,2.31,0,4.62-.06,6.93-.1.72-.08.72-.08.62-1.42,0-6.6.21-13.21-.11-19.81,0-.84,0-1.12,1-1.14,4.2-.09,4.2-.12,4.2,4.14,0,15.12,0,30.25.05,45.38,0,1.51-.42,1.93-1.82,1.75a13,13,0,0,0-2.49,0c-.81.06-1-.27-.92-1a101.69,101.69,0,0,0,.18-10.33c0-3.82,0-7.65,0-11.47,0-1.12-.21-1.49-1.42-1.49q-12.81.09-25.61,0c-1.21,0-1.44.39-1.44,1.5.05,7.09,0,14.18.06,21.28,0,1.25-.3,1.59-1.55,1.56-3-.08-3,0-3-3q0-22.52,0-45.05c0-.61,0-1.22,0-1.82.22-.44-.26-1.07.38-1.4l4,0Z"/><path class="cls-4" d="M436.56,113.9c.11.43.22.85.73,1a9.6,9.6,0,0,0,4.37,2.78,1.73,1.73,0,0,0,1.22.34,10,10,0,0,0,4.05.62,8.82,8.82,0,0,0,3.3-.49,9.21,9.21,0,0,0,5-2.68l1.76-2.17c2.08-4,1.5-8.37-1.52-10.82a17,17,0,0,0-6.95-3.23c-1.64-.63-3.49-.6-5-1.65l-1.34-.53a.32.32,0,0,0-.18-.06c-.37-.15-.67-.52-1.14-.4-1-.21-1.63-1.15-2.66-1.29a13.91,13.91,0,0,1-6.3-9c.28-.11.4-.25.08-.47h0L431.89,83c0-2.21.83-4.24,1.43-6.32.68-.87,1.35-1.75,2-2.63.5,0,.59-.6,1-.8A5.16,5.16,0,0,0,438,71.75c3.3-1.31,6.63-2.56,10.27-2.47l3.31.12a2.09,2.09,0,0,0,1.34.31l3.58,1c1.69,1.19,3.53,2.14,4.92,3.73.81.92,1.16,1.68-.24,2.32l-.37.34a4.42,4.42,0,0,0-1.65,1.22c-.14.11-.28.22-.41.34l-.46.13c-.93-.08-.68-1.45-1.64-1.5-.09-.57-.5-.82-1-1l-3.72-2a14.19,14.19,0,0,0-8,.09,10.47,10.47,0,0,0-3.65,1.91A6,6,0,0,0,437.55,80l-.06.08.05.09a8.55,8.55,0,0,0,1.31,9c2.34,2.58,5.45,3.58,8.6,4.59l.06-.1-.05.11.44.13a10.12,10.12,0,0,0,3.42.85,12.25,12.25,0,0,0,1.64.78c5.53,1.74,9.32,5.08,10.26,11.06,0,1,0,2,0,3v.66l-.36,2a4.86,4.86,0,0,0-.61,2c-.76.56-.73,1.58-1.29,2.26l-.87,1.17a6.53,6.53,0,0,1-2.61,2.47l-.92.64-.48.21-2.55,1.24c-3.6,1.15-7.3.53-11,.59l-4-1.06a.69.69,0,0,0-.71-.26l-3.34-1.87c-.15-.11-.27-.34-.52-.19l-.05,0a10.44,10.44,0,0,0-2.07-2.18,3.22,3.22,0,0,0-.48-.65c-1.07-.88-.89-1.46.29-2.11a31.72,31.72,0,0,0,3.17-2.28l.63.41C435.81,113.09,436,113.64,436.56,113.9Z"/><path class="cls-4" d="M415.28,91.36a3.28,3.28,0,0,0,.7,1.58,27.77,27.77,0,0,0,2,4.67c.2.56.41,1.12.61,1.69l5,11.74a3.68,3.68,0,0,0,.75,1.85l3.68,9a26.17,26.17,0,0,0-3.45,0,2.42,2.42,0,0,1-2.85-1.51l-.75-1.84a9.94,9.94,0,0,0-1.29-3.37,11.39,11.39,0,0,0-1.27-3,2.37,2.37,0,0,0-.66-1.67l-1.14-3a.55.55,0,0,0-.29-.63v0a27.49,27.49,0,0,0-2.24-5.16,1.24,1.24,0,0,0-.38-1.18c-.69-1.57-.86-3.33-1.7-4.85a4.88,4.88,0,0,0-.88-2.16,29.65,29.65,0,0,0-2.34-5.65l-.11-.3c-1.24-3.85-3.06-7.46-4.59-11.57-1,2.36-1.83,4.36-2.66,6.36-.15.41-.3.82-.44,1.23a43.31,43.31,0,0,0-2.58,6l-.18.27L397.81,91l-.43,1c-.45.33-.32.91-.58,1.33l-.43,1a25.42,25.42,0,0,0-1.78,4.28,1.44,1.44,0,0,0-.58,1.33l-1.91,4.21-1,2.82c-1.71,3.34-3.06,6.83-4.47,10.28a1.23,1.23,0,0,0-.39,1,7.58,7.58,0,0,0-.77,1.6c-.35,1.65-1.23,2.37-2.95,2.13a21.33,21.33,0,0,0-2.77,0c-.26-.46,0-.88.11-1.31.91-2,1.9-3.95,2.71-6,1.34-3.36,3.13-6.53,4.19-10,.07-.9,1-1.42,1.09-2.3A9.06,9.06,0,0,0,389,99.69c.27-.65.55-1.3.82-1.94a11.72,11.72,0,0,0,1.59-3.81c.47-1.44,1.45-2.66,1.74-4.17a50.39,50.39,0,0,0,4.06-9l-.12,0,.12,0a6.46,6.46,0,0,0,1.2-2.76,1.08,1.08,0,0,1,.5-1,42.18,42.18,0,0,0,2.45-5.7c.24-.23.24-.72.71-.73a16.7,16.7,0,0,0,2.45,0c1.5-.19,2.7,0,3.19,1.69l.1.33L412.51,84a9.57,9.57,0,0,0,.88,2.95Z"/><path class="cls-4" d="M67.24,122a22,22,0,0,1-10.47-7.7,21.16,21.16,0,0,1-3-6.36c-.12-.37-.31-.78,0-1.08s.78,0,1.07.15c1.46.76,2.9,1.58,4.33,2.4,2.15,1.23,4.28,2.5,6.42,3.73a2.51,2.51,0,0,0,1.55.51c.45.43.92.16,1.39,0,2.18-.56,4.37-1.1,6.55-1.65L88,108.7l7.16-1.87.44-.23a1.58,1.58,0,0,0,1.21-.26.39.39,0,0,0,.6-.15c.7.17,1.31-.3,2-.29l.12.06.13,0a23.53,23.53,0,0,0,4.4,4.06,1.45,1.45,0,0,0,1,.64c.27.69,1.16.64,1.5,1.25-1,.31-2.09.65-3.14.92Z"/><path class="cls-4" d="M238.08,176.35a3.76,3.76,0,0,0-2,0l-.72-.1c0-.55-.11-1.1-.11-1.64,0-9.72,0-19.43-.06-29.14,0-1.12.31-1.27,1.29-1.18a28.91,28.91,0,0,0,3.22-.05L243,148.5a1.1,1.1,0,0,0,.68,1l1.36,2,.62,1,5,7.11c0,.46.39.61.68.85a14.71,14.71,0,0,0,2.24,3.29l.23.32,4.61,6.81v-4.47c.18-6.53.19-13.07,0-19.61a2.65,2.65,0,0,0,0-1.67c.69-1,2.5-1.18,3.9-.33a1,1,0,0,0,0,1q-.06,10.93-.11,21.87c0,2.26-.11,4.54,0,6.79.11,1.56-.49,1.94-1.87,1.78a11,11,0,0,0-2,.09c-1-.12-1.41-1-1.93-1.64-.93-1.21-1.54-2.65-2.71-3.69l-.58-.9a9.48,9.48,0,0,0-1.73-2.47.22.22,0,0,0-.12-.23,82.93,82.93,0,0,0-4.94-7,1.57,1.57,0,0,0-.67-1l-4.59-6.67c-.55-.77-1.1-1.55-1.66-2.32,0-.26-.15-.44-.4-.37s-.14.24,0,.39a16.06,16.06,0,0,0,0,4,1.19,1.19,0,0,0,0,1,10.09,10.09,0,0,0,0,3.29q-.3,6.51,0,13l-.24,4.47Z"/><path class="cls-4" d="M412,176.12l-.65-.72a17.31,17.31,0,0,0-2.6-4.38v0a21.51,21.51,0,0,0-1.9-3.33c-.69-.77-1.52-1.46-1.57-2.61a23.45,23.45,0,0,1-1.5-2.61c-.32-.73-.78-.78-1.41-.66H400c-.62,0-1.53-.51-1.52.77,0,3.5.09,7,.13,10.49l-.24,3.13-.71.13c-.94-.42-2.33.49-2.88-.49-.42-.76-.11-2-.11-2.94,0-9,0-18,0-27.07,0-1.21.24-1.6,1.52-1.57,4.24.09,8.49-.08,12.7.59,1.58.56,3.24.95,4.38,2.34v0a10.59,10.59,0,0,1,1.95,5l.06,1.62c-.7,4.35-3.12,7.08-7.72,7.75l5.15,8.1c.33.16.08.38.07.58s-.09.45.23.52l.31.36c0,.6.49.93.69,1.42.56,1.33,1.85,2.28,2,3.84h-1Zm-13.43-23h0c0,1.43,0,2.87,0,4.3,0,.49-.1,1,.69,1,3.13-.05,6.3.28,9.33-.85a4.51,4.51,0,0,0,2.92-4.82,4.57,4.57,0,0,0-3.37-4.32c-2.87-.9-5.79-.54-8.69-.64-.8,0-.9.36-.89,1C398.56,150.25,398.54,151.68,398.54,153.12Z"/><path class="cls-4" d="M444.39,176.12c0-10.08,0-20.16,0-30.23,0-1.29.31-1.64,1.62-1.62,5.64.09,11.29.11,16.94,0,1.78,0,1.36,1,1.47,2,.14,1.21-.19,1.58-1.48,1.56-4.43-.09-8.86,0-13.29-.06-1,0-1.45.19-1.4,1.34.11,2.92.1,5.85.14,8.78V158l.09-.06c4.42,0,8.85,0,13.28-.05,2,0,1.32,1.32,1.48,2.34.22,1.39-.66,1.2-1.49,1.2-4.1,0-8.2,0-12.29,0-.92,0-1.24.21-1.22,1.17.06,2.93.08,5.87,0,8.8,0,1.1.3,1.38,1.38,1.36,4.76,0,9.52,0,14.27-.06,1.32,0,1.46.53,1.34,1.55s.48,2.07-1.38,2c-6.31-.08-12.61,0-18.92.05Z"/><path class="cls-4" d="M206.17,146.31c0,1.32-.66,1.55-1.85,1.53-4.32-.07-8.64,0-12.95-.06-1.3,0-1.56.37-1.51,1.56.1,2.38.09,4.77,0,7.15,0,1.13.25,1.5,1.44,1.47,4-.08,8,0,12-.06,1.39,0,1.69.46,1.63,1.72-.06,1.09.11,1.93-1.55,1.87-4-.14-8.08,0-12.12-.07-1.11,0-1.38.31-1.36,1.37.08,2.88.09,5.76,0,8.64,0,1.15.37,1.34,1.4,1.33,4.76,0,9.53,0,14.29,0,1.14,0,1.51.36,1.29,1.39-.18.83.74,2.2-1.24,2.17-6-.07-12,0-17.94,0-1,0-1.31-.34-1.3-1.34,0-9.8,0-19.6,0-29.4,0-1.07.32-1.25,1.31-1.24,5.37.05,10.75.09,16.12,0,1.61,0,2.51.27,2.4,2Z"/><path class="cls-4" d="M340.38,165.77c0-6.8,0-13.6-.05-20.41,0-.92.3-1.08,1.14-1.08,2.54,0,2.53,0,2.53,2.54,0,4.76,0,9.52,0,14.27a20.46,20.46,0,0,0,.4,5.56c.57,2,1.08,4,2.84,5.42.44.34.8.76,1.42.73a1.6,1.6,0,0,0,1.48.54,10.09,10.09,0,0,0,5.31-.31,5.2,5.2,0,0,0,3-2.21l.87-1.35c.18-.56.37-1.11.55-1.67.06-.24.13-.48.19-.72a1.53,1.53,0,0,0,.3-1.32c.05-7,.18-13.94-.12-20.92a.59.59,0,0,1,.17-.5l1.66-.14a1.16,1.16,0,0,0,1,0c.43.19,1,0,1.28.61q-.06,9.06-.12,18.11c0,1.15-.07,2.31-.11,3.46A16.63,16.63,0,0,1,362,172.7l-1.26,1.36-1,1a18.5,18.5,0,0,1-4.28,1.74,23.51,23.51,0,0,1-8-.33c-.71-.51-1.76-.43-2.27-1.29a13,13,0,0,1-3.35-3.51l-.38-.58a7.56,7.56,0,0,0-.92-2.81c0-.73-.08-1.46-.13-2.18a.25.25,0,0,0,0-.12C340.44,165.91,340.41,165.84,340.38,165.77Z"/><path class="cls-4" d="M507.27,175.67l-1.17.48a22,22,0,0,0-2.54.64c-2.29.56-4.52-.1-6.77-.07a4.05,4.05,0,0,0-2-.79l-4-2.87.36-.63,1.31-1c.22-.57,1.61-.38,1-1.51l0,0c.19.23.44.18.68.13.6.62.84,1.63,1.88,1.78a.59.59,0,0,0,.6.55l.76.37.67.32c.59.55,1.31.31,2,.34a3.48,3.48,0,0,0,2.32,0c1.38.2,2.38-.68,3.43-1.3,2.69-1.57,3.13-6.83-.7-8.46a40.57,40.57,0,0,0-4.72-1.75l-.67-.07a6.79,6.79,0,0,0-2.74-1.11,9.1,9.1,0,0,1-4.28-3.54c-.14-.87-.67-1.59-.81-2.49a9,9,0,0,1,3.92-9.45c.94-.76,2.2-.69,3.22-1.23a14.39,14.39,0,0,1,6.23-.16c1.42.29,2.65,1,4,1.39l.31.34c.47.71,1.48,1,1.61,2L508.42,150A7.78,7.78,0,0,0,498,148.28a4.94,4.94,0,0,0-2.11,5.13c.62,2.8,2.91,3.59,5.25,4.29l.48.14c1.27.48,2.55.95,3.82,1.45,2.33.93,4.55,2,5.68,4.46A9,9,0,0,1,507.27,175.67Z"/><path class="cls-4" d="M145.67,176.35h-1l-.83-.66-.22-.62a15,15,0,0,0-1.22-3.12c-1.11-2.47-1.64-5.16-2.88-7.58l-1.38-3.64c-.55-1.33-1.1-2.67-1.64-4a21.46,21.46,0,0,0-2-5.31c-.32-.63-.25-1.42-.8-2a13.42,13.42,0,0,0-1.67-4.37c-.48-.53-.15-.79.35-.77,1.29.05,2.6-.25,3.86.2.86,1.85,1.22,3.89,2.23,5.68a4.56,4.56,0,0,0,.87,2.27l.19.44v-.1l0,.1a10.62,10.62,0,0,0,1.41,3.69l.14.52a2,2,0,0,0,.54,1.42,13.51,13.51,0,0,0,1.15,3.23c.37,1,.74,2,1.12,3a12.46,12.46,0,0,0,1.17,3c.28.85.28,1.82,1.17,2.56l1.62-4.55.12-.35a30.5,30.5,0,0,0,2-5c.29-.38-.14-1,.37-1.29a45.61,45.61,0,0,0,2.78-7l.25-.55q.87-2.2,1.76-4.43l.28-1a2.77,2.77,0,0,0,.6-1.6,14.48,14.48,0,0,1,3.47-.32c.66,0,.7.31.58.8l-1.16,2.72c-.78,2.06-1.56,4.13-2.33,6.19a4.08,4.08,0,0,0-.71,1.9,10.21,10.21,0,0,0-1.39,3.52,22.06,22.06,0,0,0-1.71,4.29l-.08.37a1.19,1.19,0,0,0-.42.91c-.22.58-.43,1.16-.65,1.73a2.67,2.67,0,0,0-.63,1.73.71.71,0,0,0-.35.66c-.5.32-.21.95-.52,1.34-.11.46-.61.78-.45,1.33a8.62,8.62,0,0,0-.95,2.05C148.37,175.53,147.53,176.51,145.67,176.35Z"/><path class="cls-4" d="M288.74,147.81c.07-.21.11-.3.14-.39.34-1-.51-2.54.46-3.1.81-.47,2.14,0,3.24,0,6.53,0,13.07.05,19.6-.05,1.44,0,1.63.53,1.61,1.73s0,2-1.6,1.87c-2.48-.17-5,0-7.48-.07-1.12,0-1.47.22-1.47,1.42.06,8.48,0,16.95.07,25.43,0,1.5-.55,1.71-1.81,1.64s-2.15.18-2.12-1.72c.12-8.41,0-16.83.08-25.25,0-1.28-.34-1.56-1.56-1.53C294.87,147.87,291.82,147.81,288.74,147.81Z"/><path class="cls-3" d="M13.69,99.56,1.77,92.47C1.3,92.19.72,92,.7,91.34a3.66,3.66,0,0,1,1.81-.71A39.22,39.22,0,0,0,8.35,89l.65-.1a2.18,2.18,0,0,0,1.44-.28,5,5,0,0,1,5.25.63c1.14.85,2.5,1.41,3.68,2.21,2.48,1.69,5.33,2.81,7.62,4.8Z"/><path class="cls-3" d="M285.58,74.56c1.34-1.25,3.2-1.37,4.72-2.24l.66-.08a28.54,28.54,0,0,1,6-.84,5.65,5.65,0,0,0,2.87-.32c.08.21.25.24.45.2.54,0,1.08.11,1.63.15,5.44.32,10.56,1.56,14.94,5.06.61.49,1.08.94.68,1.78l0,0a70.08,70.08,0,0,0-5.85,6.21c-.84.94-1.49,1.49-2.51.19A4,4,0,0,0,307,83.23h0a2.87,2.87,0,0,0-2-1h0a2.92,2.92,0,0,0-2-.65h0c-.12-.2-.23-.16-.34,0l-.65-.06c-.25-.08-.5-.17-.76-.23-2.44-.56-4.82.32-7.24.26,2.28-1.62,4.81-1.54,7.38-1,.35.07.68.47,1.07.36,2.76-.79,4.54,1.13,6.42,2.47s2.67-.32,3.55-1A22.75,22.75,0,0,0,315,79.73c1.45-1.6,1-3-.81-4.11a23.93,23.93,0,0,0-9-3.1c-4-.56-8.06-1-12.15,0a33.87,33.87,0,0,0-5.55,1.88A3.27,3.27,0,0,1,285.58,74.56Z"/><path class="cls-3" d="M206.17,146.31h0s.08-.08.1-.08.15.11,0,.15S206.21,146.34,206.17,146.31Z"/><polygon class="cls-3" points="448.46 157.97 448.37 158.02 448.36 157.91 448.44 157.88 448.46 157.97"/><path class="cls-2" d="M106.57,111.89a12.94,12.94,0,0,1-.06,6.71c-.48,1.7-2.14,2.19-3.69,2.63l-3,.64c-.3,0-.58,0-.75.32-7.37,1.24-14.56,3.27-21.79,5.1l-5.11,1.27-.4.15c-1.67.2-3.22,1.07-5,.81.49-2.5-.46-5.09.39-7.57l36.19-9.14C104.48,112.54,105.52,112.2,106.57,111.89Z"/><path class="cls-2" d="M96.82,106.34a1.59,1.59,0,0,1-1.22.26c-.14.08-.28.16-.43.23L88,108.7,75.07,112c-2.18.55-4.37,1.09-6.55,1.65-.47.12-.94.39-1.39,0,0-2.66,0-5.31,0-8,4.12-.48,8-1.85,12-2.81C87,101,94.84,98.92,102.67,96.94c.74-.19,1.45-.5,2.2-.65,1-.2,1.56.12,1.61,1.37.09,2.41,0,4.69-1.67,6.62h0c-1.93.07-3.84.2-5.38,1.61-.67,0-1.28.46-2,.29C97.12,105.84,96.93,106,96.82,106.34Z"/><path class="cls-2" d="M53.19,89.65,68.07,86c4.91-1.22,9.85-2.34,14.72-3.7,2.44-.69,4.93-1.15,7.37-1.78,1.72-.45,2.22-.09,2.29,1.72.07,1.55,0,3.1,0,4.65,0,.9-.48,1.16-1.16,1.32-3.26.75-6.53,1.46-9.77,2.35-4.44,1.23-8.93,2.25-13.4,3.39C64,95,59.79,96.11,55.59,97.16a11.81,11.81,0,0,1-2.31.13Z"/><path class="cls-2" d="M62.18,157.07a1.45,1.45,0,0,1-.3.06l-.38.2-1.29.16c-.88-4.12.3-8.24,0-12.37a18.64,18.64,0,0,0-.36-3.94,13,13,0,0,0,3.7-.61c1.73-.42,3.41-1.17,5.26-1.07q0,7.33.11,14.68c0,.79-.34,1.37-1.07,1.43-1.82.17-3.44,1.17-5.27,1.25Z"/><path class="cls-3" d="M27,110.33a2.58,2.58,0,0,0,1.62,2.06c2.42,1.26,4.56,3,7.14,4,.38,1.52-.28,3-.18,4.5a67.88,67.88,0,0,1-8.33,1.68l-11.9-6.66c-.53-.29-1.09-.58-1.05-1.33.66,0,1.31-.07,2-.16,3.13-.47,6-2,9.19-2.27A1.52,1.52,0,0,0,27,110.33Z"/><path class="cls-3" d="M68.81,139.5c-1.85-.1-3.53.65-5.26,1.07a13,13,0,0,1-3.7.61c-3.53-1.65-6.75-3.85-10.16-5.71-1-.53-1.95-1-2.87-1.63-.61-.4-.72-.81.23-1,2.4-.55,4.8-1.16,7.19-1.8a2.07,2.07,0,0,1,1.69.43,19.26,19.26,0,0,0,3.89,2.11c2.52,1.95,5.44,3.26,8.11,4.95C68.33,138.74,68.93,138.8,68.81,139.5Z"/><path class="cls-2" d="M80.23,182.08c.15.55,0,1.07-.55,1.21-3.92,1.05-7.75,2.45-11.78,3.07-1.6-.15-1-1.49-1-2.25-.15-1.78,0-3.58,0-5.38.48-.12,1-.21,1.43-.35,3.86-1.18,7.8-2,11.59-3.44l.05.06.3.38a36.33,36.33,0,0,1,0,5.32A.78.78,0,0,0,80.23,182.08Z"/><path class="cls-3" d="M34.28,134.84c-1.82,0-3.13-1.15-4.59-2-2.53-1.41-5-2.87-7.74-4.43,1.91-1.1,4-.87,5.69-1.91a7.83,7.83,0,0,0,2.09-.31c1.95-.46,3.85-1.26,5.92-1l-.06,9.32Z"/><path class="cls-3" d="M79.88,174.94c-3.79,1.4-7.73,2.26-11.59,3.44-.47.14-1,.23-1.43.35-2.11-.59-3.7-2.16-5.65-3-.37-.17-.32-.54-.29-.88l12.61-3.37c1.88,1,3.75,1.95,5.64,2.91C79.46,174.49,79.79,174.55,79.88,174.94Z"/><path class="cls-4" d="M34.28,134.84l1.31-.33a3.66,3.66,0,0,1,.32,1.76c0,7.56,0,15.12,0,22.68,0,.53.18,1.13-.38,1.53l-2.3-1.35a6.63,6.63,0,0,0,.4-2.43c0-6.59,0-13.18,0-19.77C33.6,136.16,33.51,135.36,34.28,134.84Z"/><path class="cls-2" d="M35.65,125.19c-2.07-.22-4,.58-5.92,1a7.83,7.83,0,0,1-2.09.31,15.74,15.74,0,0,1-.36-4,67.88,67.88,0,0,0,8.33-1.68A6.86,6.86,0,0,1,35.65,125.19Z"/><path class="cls-3" d="M279.64,78.94a15.44,15.44,0,0,1,5.92-4.37c0,.22,0,.53-.09.63q-2.52,2.11-5.08,4.16C279.89,79.76,279.72,79.37,279.64,78.94Z"/><path class="cls-5" d="M74.51,165.4c0-1.76-.07-3.42,0-5.07.07-1.17-.27-1.48-1.37-1.09a15.6,15.6,0,0,1-2,.41c0-1.52,0-3,0-4.55,0-.78.57-.77,1-.78,2,0,2.57-1,2.38-2.92a42.34,42.34,0,0,1,0-6.47c.09-1.49-.42-1.74-1.68-1.23-.45.18-.94.27-1.67.47,0-1.59-.08-3.1,0-4.6.07-1,1.15-1,1.79-1,1.26-.06,1.6-.6,1.53-1.76-.09-1.38,0-2.77-.05-4.15-.07-1,.35-1.4,1.27-1.5a11.39,11.39,0,0,0,1.14-.21c2.45-.54,2.45-.54,2.43,2.07,0,1,0,2,0,3,0,.82.35.95,1,.77,1.54-.42,3.08-.88,4.64-1.23a1.15,1.15,0,0,0,1-1.39c0-1.27.11-2.56-.06-3.81-.19-1.43.44-1.86,1.69-2.2,3.18-.86,3.16-.93,3.16,2.26v1c0,.77-.23,1.72.13,2.27.5.76,1.34-.15,2.06-.18s1,.08,1,.85A6.59,6.59,0,0,0,94,136c.32,1.74-.18,2.79-2.1,2.94-.82.06-1.11.55-1.09,1.44.08,2.66.06,5.32,0,8,0,.94.16,1.25,1.2,1,2-.43,2-.36,2,1.73a9,9,0,0,0,0,1.16c.21,1.33-.15,2.08-1.67,2.1-1,0-1.75.55-1.5,1.81a8.23,8.23,0,0,1,0,1.49c0,3.9,0,3.89-3.85,4.73-.77.17-1,0-1-.77,0-1.55,0-3.1,0-4.65,0-.77-.25-1-1-.8-1.59.44-3.17.89-4.78,1.27-.77.17-1,.59-.92,1.3,0,1,0,2,0,3,0,2.71,0,2.72-2.64,3.3C76,165.16,75.38,165.25,74.51,165.4Zm4.8-18.5c0,1.77,0,3.27,0,4.76,0,.65.15.92.85.72,1.64-.46,3.28-.92,4.93-1.3.76-.17,1-.52.93-1.25,0-2.54-.11-5.09,0-7.62.07-1.48-.22-2-1.75-1.41s-3.67.4-4.62,1.42S79.47,145.49,79.31,146.9Z"/><path class="cls-1" d="M94.78,179.38a1.58,1.58,0,0,1-1.71.11c-5-2.89-10-5.68-14.91-8.78.06-.16.08-.41.18-.44,2.79-.83,5.51-2,8.45-2.18a52.56,52.56,0,0,1,6.67,3.65c0,1.82.07,3.65,0,5.47C93.36,178.34,93.67,179.07,94.78,179.38Z"/><path class="cls-3" d="M93.46,171.74a52.56,52.56,0,0,0-6.67-3.65c1.85-1.31,4.1-1.4,6.16-2,2.31-.73,4.64-1.37,7-2a34.62,34.62,0,0,0,5.63,3.39A2.31,2.31,0,0,1,107,170c-.12,1.14.18,2.31-.17,3.44-.82-1.15-.32-2.44-.36-3.66s-.39-1.39-1.6-1.16a55.42,55.42,0,0,0-6,1.62C97.11,170.81,95.11,170.66,93.46,171.74Z"/><path class="cls-1" d="M106.4,145.75c-1.56.69-2.68-.32-3.89-1-.8-.46-1.62-.89-2.43-1.34l.12-16c1.71.45,3,1.76,4.57,2.4,0,4.53.06,9.07,0,13.6C104.71,144.79,105.08,145.53,106.4,145.75Z"/><path class="cls-3" d="M104.77,129.85c-1.6-.64-2.86-1.95-4.57-2.4-.65-1.61-.16-3.31-.36-5,0-.21,0-.42,0-.62l3-.64c1.5,1.73,3.89,1.89,5.65,3.19,1.61,1.2,3.68,1.74,5,3.42l-1.6.37A55.16,55.16,0,0,1,104.77,129.85Z"/><path class="cls-1" d="M99.86,121.87c0,.2,0,.41,0,.62l-.73-.3C99.28,121.89,99.56,121.87,99.86,121.87Z"/><path class="cls-1" d="M62.18,157.07l.4-.21Z"/><path class="cls-1" d="M71.81,128.71l.4-.15Z"/><path class="cls-1" d="M61.5,157.33l.38-.2Z"/><path class="cls-2" d="M27,110.33a1.52,1.52,0,0,1-1.55,1.8c-3.18.3-6.06,1.8-9.19,2.27-.65.09-1.3.11-2,.16a2.37,2.37,0,0,1-.47-2.45c.41-1.06-.22-2-.2-3.1,0-3.15,0-6.3,0-9.45L27,96.25Q27,103.29,27,110.33Z"/><path class="cls-3" d="M13.91,115.2l-.23-.31C13.92,114.87,14,115,13.91,115.2Z"/><path class="cls-1" d="M144,72.65c1.15-.27.94.57.94,1.19V86.62l0,23.56c-1-.24-.58-1.07-.58-1.63q0-16.23,0-32.47A30.16,30.16,0,0,0,144,72.65Z"/><path class="cls-3" d="M99.4,105.9c1.54-1.41,3.45-1.54,5.38-1.61-1.58.95-3.47.93-5.13,1.65l-.13,0Z"/><path class="cls-3" d="M96.82,106.34c.11-.39.3-.5.6-.15A.39.39,0,0,1,96.82,106.34Z"/><path class="cls-3" d="M95.17,106.83c.15-.07.29-.15.43-.23C95.46,106.68,95.32,106.76,95.17,106.83Z"/><path class="cls-2" d="M254.07,120.19,240.3,97.66c-2.07-3.38-4.13-6.76-6.23-10.12-.17-.27-.15-1.25-.94-.51a35.58,35.58,0,0,0-.37,7.44c.09,8.08,0,16.16.05,24.25,0,1-.47,1.19-1.33,1.18-1.88,0-3.77,0-5.65,0-2.32,0-2.39-.07-2.39-2.46q0-20.93,0-41.85a10.37,10.37,0,0,1,.32-2.94c4.16,0,8.31,0,12.46-.11,1.08,0,1.38.79,1.8,1.47l11.75,19.2a8.69,8.69,0,0,0,.61.75c1.9,3.78,4.36,7.21,6.54,11a2.55,2.55,0,0,0,.33-1.93c0-9.53,0-19,0-28.58,0-1.39.26-2,1.81-1.89,2.42.14,4.87.07,7.31,0,.92,0,1.37.15,1.37,1.25q-.06,22.61,0,45.21c0,1.09-.4,1.26-1.35,1.25C262.27,120.18,258.17,120.2,254.07,120.19Z"/><path class="cls-2" d="M93.46,171.74c1.65-1.08,3.65-.93,5.46-1.5a55.42,55.42,0,0,1,6-1.62c1.21-.23,1.56-.09,1.6,1.16s-.46,2.51.36,3.66c0,.88,0,1.76,0,2.64-.2.06-.31.18-.26.4l-.1.07a.51.51,0,0,0-.7.15l-11,2.68c-1.11-.31-1.42-1-1.36-2.17C93.53,175.39,93.46,173.56,93.46,171.74Z"/><path class="cls-3" d="M80.23,182.08a.78.78,0,0,1,0-1.38A1.36,1.36,0,0,1,80.23,182.08Z"/><path class="cls-3" d="M105.76,176.7a.51.51,0,0,1,.7-.15C106.27,176.8,106,176.77,105.76,176.7Z"/><path class="cls-3" d="M80.23,175.38l-.3-.38A.31.31,0,0,1,80.23,175.38Z"/><path class="cls-3" d="M106.56,176.48c0-.22.06-.34.26-.4A.31.31,0,0,1,106.56,176.48Z"/><path class="cls-2" d="M181.66,119.76a22.72,22.72,0,0,1-12.59-10.86A27.4,27.4,0,0,1,167.32,88a25.08,25.08,0,0,1,6.32-10.32,27.54,27.54,0,0,1,9.06-5c11.94-3.52,27.12-.17,32.57,13.39a27.82,27.82,0,0,1,1.55,15c-1.24,7.74-5.18,13.71-12.17,17.33a27.41,27.41,0,0,1-18.18,2.56C184.86,120.61,183.27,120.15,181.66,119.76Zm9.91-7.62c4.92.64,8.7-1.52,11.86-5,2.47-2.75,2.85-6.3,3.37-9.74.24-1.63-.34-3.25-.54-4.87a12.12,12.12,0,0,0-3.4-7.27c-.58-.59-.2-1.69-1.14-1.87-2.56-.47-4.57-2.26-7.23-2.65s-5.29-.71-7.48.15c-2.63,1-5.38,2.47-7.18,5-3.82,5.4-4.21,11.13-2.05,17.27a12.82,12.82,0,0,0,3.77,5.46C184.36,111.08,187.59,112.76,191.57,112.14Z"/><path class="cls-2" d="M104.77,129.85a55.16,55.16,0,0,0,7.06-1.64l1.6-.37q0,7.6.11,15.19c0,.79-.44,1-1.09,1.17-2,.5-4,1-6,1.55-1.32-.22-1.69-1-1.66-2.3C104.83,138.92,104.77,134.38,104.77,129.85Z"/><path class="cls-1" d="M223.76,72.64a10.37,10.37,0,0,0-.32,2.94q0,20.92,0,41.85c0,2.39.07,2.46,2.39,2.46,1.88,0,3.77,0,5.65,0,.86,0,1.33-.18,1.33-1.18,0-8.09,0-16.17-.05-24.25a35.58,35.58,0,0,1,.37-7.44l0,33.17c-3,0-6-.06-9,0-1.13,0-1.35-.36-1.34-1.4q0-22.49,0-45C222.81,73.2,222.63,72.4,223.76,72.64Z"/><path class="cls-4" d="M79.31,146.9c.16-1.41-.71-3.55.34-4.68s3.08-.87,4.62-1.42,1.82-.07,1.75,1.41c-.12,2.53,0,5.08,0,7.62,0,.73-.17,1.08-.93,1.25-1.65.38-3.29.84-4.93,1.3-.7.2-.86-.07-.85-.72C79.33,150.17,79.31,148.67,79.31,146.9Z"/><path class="cls-3" d="M191.57,112.14c-4,.62-7.21-1.06-10-3.54a12.82,12.82,0,0,1-3.77-5.46C175.62,97,176,91.27,179.83,85.87c1.8-2.54,4.55-4,7.18-5,2.19-.86,4.92-.53,7.48-.15s4.67,2.18,7.23,2.65c.94.18.56,1.28,1.14,1.87a12.12,12.12,0,0,1,3.4,7.27c.2,1.62.78,3.24.54,4.87-.52,3.44-.9,7-3.37,9.74C200.27,110.62,196.49,112.78,191.57,112.14Zm14.56-15.75a14.18,14.18,0,0,0-.43-3.6c-1.07-5.7-4.45-9.51-10-11s-10.54-.5-14.49,3.74-4.76,9.4-3.52,15c1.85,8.37,9.92,12.55,17.92,10.45C202.31,109.21,205.92,103.56,206.13,96.39Z"/></svg>