<svg id="레이어_1" data-name="레이어 1" xmlns="http://www.w3.org/2000/svg" viewBox="0 0 512 256"><defs><style>.cls-1{fill:#231d3a;}.cls-2{fill:#808485;}</style></defs><path class="cls-1" d="M22,100.44c-6.51,0-13,0-19.53,0-1.79,0-2.53-.31-2.5-2.34.13-7.23.08-14.47,0-21.7,0-1.4.17-2.16,1.87-2.1,3.61.12,7.23.09,10.85,0,1.42,0,1.88.41,1.84,1.84-.09,3.61.08,7.24-.07,10.85-.07,1.83.56,2.25,2.29,2.23,8.41-.08,16.83-.3,25.23,0,13,.5,23.44,5.91,29.76,17.63,7.79,14.42,1.4,31.88-14.24,39.7A38.13,38.13,0,0,1,43,150.48c-2.31.17-2.57-.79-2.08-2.66a15,15,0,0,1,8-10.08,29.68,29.68,0,0,0,7.79-5.33c7.87-7.73,7.57-19-.75-26.32a23,23,0,0,0-15.45-5.64C34.33,100.4,28.18,100.44,22,100.44Z"/><path class="cls-2" d="M73,181.38c-6.34-.35-14.14.63-21.88-.53-13.62-2-24.86-12.34-27.28-24.92-2.29-11.88,3.57-24.17,14.48-30.59a38.6,38.6,0,0,1,17.19-5.28c1.87-.12,2.63.26,2.09,2.4a15.08,15.08,0,0,1-8.46,10.62,24.78,24.78,0,0,0-9.35,7.23c-7.46,9.84-3,23.27,9.36,28a26.22,26.22,0,0,0,9.53,1.79c11.76-.05,23.51,0,35.27-.07,2,0,2.75.52,2.59,2.58a44.21,44.21,0,0,0,0,6.51c.11,1.79-.52,2.33-2.3,2.3C87.66,181.32,81.06,181.38,73,181.38Z"/><path class="cls-1" d="M161.54,95.94c6.87,4.21,8.62,7.57,7.36,13.72a11.82,11.82,0,0,1-7.38,8.73,20.23,20.23,0,0,1-8.16,1.7c-8.14,0-16.28,0-24.41,0-1.81,0-2.26-.5-2.25-2.27q.09-20.46,0-40.94c0-1.73.34-2.37,2.2-2.34,8,.1,15.91,0,23.87,0a21.4,21.4,0,0,1,5.89.8c4.83,1.4,8.17,4.23,8.83,9.46C168.1,89.85,166.07,93.49,161.54,95.94Zm-16.23,15.8c2.25,0,4.53.18,6.77,0,3.66-.37,5.37-2.29,5.34-5.57,0-3.11-1.69-4.91-5.36-5.2s-7.23,0-10.83-.27c-2.72-.2-4,.46-3.56,3.45.37,2.46-1,5.69.57,7.28S142.89,111.62,145.31,111.74Zm-.22-19.36h2.7c1,0,2,.05,3,0,3.47-.23,5.24-1.79,5.25-4.56s-1.67-4.53-5.13-4.68c-3.87-.17-7.75-.06-11.62-.1-.89,0-1.43.07-1.59,1.24-1,7.57-.59,8.12,6.87,8.12Z"/><path class="cls-1" d="M211.58,159.55c5.41,2.6,6.32,7,6.21,12a34.41,34.41,0,0,0,.32,8.11c.3,1.34-.16,1.78-1.5,1.74a73.9,73.9,0,0,0-7.59,0c-2,.14-2.61-.77-2.68-2.43-.11-2.71-.16-5.42-.21-8.13-.09-5.06-1.51-6.63-6.57-6.92-3-.17-6,0-8.94-.18-1.56-.07-2,.48-2,2,.09,4.43,0,8.86.06,13.29,0,1.65-.24,2.51-2.19,2.35a46.49,46.49,0,0,0-6.78,0c-1.75.11-2.08-.6-2.07-2.2q.09-20.61,0-41.24c0-1.77.45-2.29,2.26-2.26,7.86.1,15.73,0,23.6,0a20.9,20.9,0,0,1,5.87.91c5.22,1.53,8.7,4.69,9.42,10.3S217.42,156.85,211.58,159.55Zm-15.87-4v-.29a52.38,52.38,0,0,0,6.75-.06c3.55-.45,5.07-2.31,5-5.54,0-3-1.63-4.68-5.06-5.27-3.13-.53-6.3-.27-9.45-.29-4.3,0-4.36,0-4.28,4.22.05,2.31-1,5.36.5,6.71C190.5,156.14,193.47,155.41,195.71,155.51Z"/><path class="cls-1" d="M456.44,159.54c5.1,2.4,6.37,6.47,6.24,11.35a38.07,38.07,0,0,0,.36,8.92c.26,1.22-.12,1.6-1.34,1.58-2.8-.06-5.61-.1-8.41,0-1.74.06-1.92-1.11-2-2.27-.18-3-.24-5.95-.32-8.93-.1-4.23-1.63-6-5.81-6.22-3.24-.19-6.5-.07-9.75-.22-1.53-.06-1.78.59-1.76,1.92.07,4.52,0,9,.06,13.56,0,1.62-.34,2.33-2.08,2.15-2.94-.3-6.7,1.24-8.6-.61-1.64-1.6-.44-5.33-.45-8.11,0-11.48,0-23-.07-34.45,0-2.07.56-2.55,2.57-2.52,7.59.13,15.19.07,22.79,0a23.06,23.06,0,0,1,7.19,1.14c5.13,1.65,8.38,5.64,8.71,10.61C464.18,153.38,462.28,156.61,456.44,159.54Zm-15.73-4v-.09c1.17,0,2.35,0,3.53,0a24,24,0,0,0,3.5-.29c3.16-.61,4.73-2.43,4.74-5.35s-1.56-4.67-4.74-5.33-6.49-.35-9.74-.38c-4.32-.05-4.38,0-4.3,4.19.05,2.32-1,5.38.48,6.74C435.48,156.15,438.47,155.41,440.71,155.51Z"/><path class="cls-1" d="M240.8,73.62c10.37.24,18.5,3.94,22.55,13.55,4,9.38,3,18.53-3.86,26.36-6,6.87-14.16,8.46-22.76,7.35-13.33-1.72-21-11.48-20.37-25.17.59-12.12,10-21.2,22.65-21.94C239.73,73.73,240.45,73.65,240.8,73.62Zm12.83,23.82a17.53,17.53,0,0,0-1.06-6.91c-2-5.29-6-8.11-11.84-8.12a11.5,11.5,0,0,0-11.45,7.87,19.38,19.38,0,0,0,.22,14.53c2.1,5.11,6.53,7.8,12.25,7.58,5.19-.2,9-3.19,10.85-8.32A17.67,17.67,0,0,0,253.63,97.44Z"/><path class="cls-1" d="M376.23,158.55c0-6.87.06-13.74-.05-20.62,0-1.81.53-2.23,2.26-2.22q16.69.12,33.37,0c1.68,0,2.1.42,2.11,2.1,0,6.91.11,6.91-6.76,6.91-6,0-11.93,0-17.9,0-1.46,0-2,.31-2.09,1.92-.2,6.58-.26,6.58,6.35,6.57,5.61,0,11.22,0,16.82,0,1.64,0,2.37.24,2.36,2.17,0,6.92.08,6.92-6.83,6.92-5.52,0-11,.06-16.55,0-1.64,0-2.27.39-2.14,2.11a37.06,37.06,0,0,1,0,6c-.16,1.8.6,2.06,2.16,2.05,8-.07,15.91,0,23.87-.07,1.85,0,2.44.46,2,2.29-.56,2.16.16,5.11-1.35,6.42s-4.34.37-6.59.38c-9.58,0-19.17,0-28.75.06-1.73,0-2.33-.39-2.3-2.24C376.3,172.3,376.23,165.42,376.23,158.55Z"/><path class="cls-1" d="M504.59,148.26h-4.07c-.72,0-1.39.05-1.75-.85-1.26-3.14-4-3.93-7-4.28a14.28,14.28,0,0,0-7.46.78,3.88,3.88,0,0,0-2.61,3.49c-.1,1.8,1.06,2.82,2.55,3.48a38.91,38.91,0,0,0,8.64,2.22A47.54,47.54,0,0,1,505,156.83c4.26,2.09,6.75,5.26,6.94,10.13.21,5.17-1.59,9.5-6.19,11.8a32.12,32.12,0,0,1-29.49.22c-3.8-1.82-6.15-5.19-7.35-9.32-.46-1.55-.48-2.4,1.51-2.19a24.1,24.1,0,0,0,3.8,0c3-.15,5.88-.42,7.28,3.23.32.84,1.59,1.47,2.56,1.89a19.54,19.54,0,0,0,13.25.62,4.13,4.13,0,0,0,3.24-3.89,4.2,4.2,0,0,0-2.69-4.29c-3.87-1.92-8.17-2.19-12.29-3.14a33,33,0,0,1-9.42-3.29,11.66,11.66,0,0,1-1.56-19.22c5.08-4.19,11.18-4.8,17.41-4.53a24.08,24.08,0,0,1,11.18,2.88,13.72,13.72,0,0,1,6.7,8.49c.39,1.4.25,2.23-1.53,2C507.13,148.16,505.86,148.27,504.59,148.26Z"/><path class="cls-1" d="M336,94.36c6.69-6.21,12.84-11.8,18.83-17.54a7.12,7.12,0,0,1,5.75-2.23c3.22.17,6.46,0,10.47,0-1.24,1.13-2,1.81-2.73,2.5-5.59,5.13-11.15,10.31-16.81,15.37-1.44,1.3-1.58,2.14-.23,3.66,6.89,7.77,13.66,15.64,20.86,23.93-4.74,0-9,0-13.27,0-1.17,0-1.61-1.08-2.22-1.81-4.55-5.38-9.1-10.77-13.58-16.22-.95-1.16-1.47-1.48-2.93-.44-3.12,2.22-4.79,4.76-4.21,8.78.37,2.57,0,5.24.1,7.86.05,1.37-.29,1.94-1.78,1.88-2.53-.12-5.07-.11-7.6,0-1.48.06-1.8-.52-1.79-1.88q.06-20.9,0-41.78c0-1.44.43-1.92,1.85-1.86,3,.13,6.74-.92,8.69.52s.49,5.38.58,8.22C336.12,86.75,336,90.16,336,94.36Z"/><path class="cls-1" d="M275.68,181.37c-3.47,0-7,0-10.49,0-1.21,0-1.48-.8-1.82-1.64-.92-2.26-1.91-4.49-2.73-6.79a2.44,2.44,0,0,0-2.76-1.91c-5.42.1-10.86.09-16.28,0a2.34,2.34,0,0,0-2.57,1.73c-1.14,2.83-1.28,7.12-3.66,8.14-3,1.3-7.06.32-10.81.32.22-2,1.26-3.75,2-5.54,5-12.59,10.12-25.13,15.11-37.72.66-1.67,1.42-2.39,3.32-2.28,3.43.19,6.88.07,10.31,0,1,0,1.66.09,2.11,1.19q9.17,21.87,18.4,43.71C275.85,180.78,275.74,181,275.68,181.37Zm-26.27-37.74c-2.13,5.82-4.16,11.39-6.2,17-.4,1.09,0,1.45,1.08,1.44,3.53,0,7.06-.05,10.58,0,1.59,0,1.57-.59,1.09-1.8C253.78,154.81,251.66,149.36,249.41,143.63Z"/><path class="cls-1" d="M312.42,89.11a15.56,15.56,0,0,0-2.16,0c-2.16.3-3.44-.44-4.72-2.4C301.1,80,288.78,81.11,285,88.63a18.5,18.5,0,0,0,.25,17.74c4.36,8.16,16.17,8.37,21,.54a2.35,2.35,0,0,1,2.37-1.32c2.53.07,5.07.13,7.6,0,1.91-.11,1.85.69,1.34,2.05-3.13,8.26-9.43,12.25-17.89,13.29a28.71,28.71,0,0,1-15.67-2c-8.55-3.89-13.24-12.59-12.64-23.25.55-9.65,6.53-17.76,15.5-20.56,7.42-2.3,14.83-2.11,21.9,1.46a17.37,17.37,0,0,1,9,10.67c.57,1.78,0,2-1.51,1.94C315,89.05,313.69,89.11,312.42,89.11Z"/><path class="cls-1" d="M170.6,166.74c-1.36,7.65-7.44,13.36-16.21,14.92-8.41,1.5-16.5.76-23.17-5.33-6.93-6.33-9.19-17.58-5.63-26.83,3.37-8.76,11.61-14.4,21.5-14.71,5.13-.17,10.1.48,14.68,3a17.75,17.75,0,0,1,8.72,10.61c.44,1.43.21,1.95-1.39,1.88-2.62-.1-5.24-.07-7.87,0a2,2,0,0,1-2.15-1.17c-2.68-5.15-7.39-6.09-12.5-5.49s-8.51,3.81-10,8.73a20,20,0,0,0,.81,14.07A11.39,11.39,0,0,0,148,173.64c4.68.21,8.82-1,11.07-5.68.33-.68.63-1.24,1.55-1.23C163.91,166.76,167.24,166.74,170.6,166.74Z"/><path class="cls-1" d="M282.39,158.39c0-6.7.06-13.39-.05-20.08,0-1.91.31-2.64,2.47-2.62,10.94.13,21.88.09,32.82,0,1.68,0,2.46.31,2.28,2.19-.21,2.13.65,5-.43,6.25s-4.08.38-6.22.4c-5.88.06-11.76.07-17.63,0-1.5,0-2.09.36-2,1.93.16,2.7-.87,6.22.48,7.87s5.06.48,7.73.53c4.7.09,9.41.07,14.11,0,1.54,0,2.2.24,2.21,2,0,6.88.11,6.88-6.85,6.88-5.24,0-10.49.06-15.73,0-1.56,0-2,.46-1.95,2,.09,4.52-.05,9.05.07,13.56.05,1.72-.5,2.21-2.15,2.12a66.31,66.31,0,0,0-7.05,0c-1.65.09-2.17-.44-2.15-2.13C282.44,172.31,282.39,165.35,282.39,158.39Z"/><path class="cls-1" d="M348.5,135.75c6.42,0,12.84.07,19.25,0,1.78,0,2.27.45,2.27,2.23,0,6.63.06,6.63-6.51,6.63-2.44,0-4.89.11-7.32,0-1.78-.11-2.27.45-2.26,2.24.09,10.66,0,21.33.1,32,0,2.22-.62,2.83-2.71,2.63a27.65,27.65,0,0,0-5.68,0c-2.39.27-2.78-.71-2.76-2.87.11-10.48,0-21,.1-31.45,0-2-.44-2.67-2.53-2.58-3.88.18-7.77,0-11.65.09-1.52,0-1.94-.42-2-2-.09-6.9-.14-6.9,6.75-6.9Z"/><path class="cls-1" d="M177,97.29c0-6.78.09-13.57,0-20.35,0-2,.66-2.46,2.48-2.34a47.15,47.15,0,0,0,6.51,0c1.94-.15,2.4.56,2.38,2.43-.09,10.59,0,21.18-.09,31.76,0,2.07.54,2.58,2.55,2.54,6.88-.13,13.76,0,20.63-.1,2,0,2.16.67,1.89,2.32-1.07,6.54-1,6.55-7.72,6.55-8.69,0-17.38-.07-26.06,0-2,0-2.62-.37-2.57-2.49C177.14,110.87,177,104.08,177,97.29Z"/><path class="cls-1" d="M10.8,139.25c2.81,0,5.61.05,8.42,0,1.31,0,1.85.2,1.31,1.64A23.69,23.69,0,0,0,19,148.81c0,1.32-.58,1.67-1.81,1.66-5.16-.05-10.32-.06-15.48,0-1.34,0-1.7-.5-1.66-1.76.07-2.53.09-5.07,0-7.6,0-1.4.38-1.93,1.82-1.88C4.83,139.31,7.82,139.25,10.8,139.25Z"/><path class="cls-2" d="M87.11,131.38c-2.61,0-5.22,0-7.83,0-1.27,0-1.83-.25-1.32-1.72a22.54,22.54,0,0,0,1.45-7.93c0-1.31.55-1.7,1.78-1.68,4.51,0,9,.06,13.52,0,1.43,0,1.89.51,1.85,1.89-.08,2.52-.08,5,0,7.57,0,1.4-.45,1.93-1.87,1.88C92.16,131.32,89.64,131.38,87.11,131.38Z"/></svg>