<svg id="레이어_1" data-name="레이어 1" xmlns="http://www.w3.org/2000/svg" xmlns:xlink="http://www.w3.org/1999/xlink" viewBox="0 0 512 256"><defs><style>.cls-1,.cls-2,.cls-4{fill:#4c6ef5;}.cls-1{clip-rule:evenodd;}.cls-3,.cls-8{fill:#fff;}.cls-4,.cls-8{fill-rule:evenodd;}.cls-5{clip-path:url(#clip-path);}.cls-6{clip-path:url(#clip-path-2);}.cls-7{clip-path:url(#clip-path-3);}</style><clipPath id="clip-path"><polygon class="cls-1" points="62.16 90.04 47.57 112.38 54.87 123.55 62.16 112.38 69.45 123.55 76.74 112.38 62.16 90.04"/></clipPath><clipPath id="clip-path-2"><rect class="cls-2" y="65.71" width="512" height="124.59"/></clipPath><clipPath id="clip-path-3"><polygon class="cls-1" points="89.91 112.97 82 112.97 62.6 143.03 43.19 112.97 35.1 112.97 29.01 112.97 62.6 164.99 96.19 112.97 89.91 112.97"/></clipPath></defs><rect class="cls-3" y="65.71" width="124.59" height="124.59" rx="47.79"/><polygon class="cls-4" points="62.16 90.04 47.57 112.38 54.87 123.55 62.16 112.38 69.45 123.55 76.74 112.38 62.16 90.04"/><g class="cls-5"><rect class="cls-2" y="65.71" width="512" height="124.59"/><g class="cls-6"><rect class="cls-2" x="43.31" y="85.77" width="37.7" height="42.04"/></g></g><polygon class="cls-4" points="89.91 112.97 82 112.97 62.6 143.03 43.19 112.97 35.1 112.97 29.01 112.97 62.6 164.99 96.19 112.97 89.91 112.97"/><g class="cls-7"><rect class="cls-2" y="65.71" width="512" height="124.59"/><g class="cls-6"><rect class="cls-2" x="24.75" y="108.7" width="75.71" height="60.56"/></g></g><polygon class="cls-8" points="229.55 93.83 223.35 106.17 194.99 162.95 166.62 106.17 160.43 93.83 173.98 93.83 180.18 106.17 194.99 135.79 209.8 106.17 215.99 93.83 229.55 93.83"/><path class="cls-8" d="M302.08,128.39a34.56,34.56,0,1,1-34.56-34.56,34.6,34.6,0,0,1,34.56,34.56m-12.34,0a22.22,22.22,0,1,0-22.22,22.21,22.25,22.25,0,0,0,22.22-22.21"/><path class="cls-8" d="M376.32,150.6V163h-35.7a22.34,22.34,0,0,1-20-12.35,21.12,21.12,0,0,1-2.32-9.67V93.83h12.58v48.28a9.92,9.92,0,0,0,8.54,8.39Z"/><polygon class="cls-8" points="443.73 93.83 443.73 106.17 415.35 106.17 415.35 162.95 402.99 162.95 402.99 106.17 374.61 106.17 374.61 93.83 443.73 93.83"/><polygon class="cls-8" points="512 162.95 498.45 162.95 492.25 150.6 477.44 120.98 462.63 150.6 456.43 162.95 442.88 162.95 449.08 150.6 477.44 93.83 505.8 150.6 512 162.95"/></svg>