<svg xmlns="http://www.w3.org/2000/svg" viewBox="0 0 512 256"><defs><style>.cls-1{fill:#fff}</style></defs><rect class="cls-1" x="39.02" y="92.02"/><path class="cls-1" d="M39 104.67l31.7 11.48 4.44-.9v-6.52L39 91.58 2.81 108.73v6.52l4.43.9zM39 92zM4.06 109l34.2-16 .71-.33L73.89 109v5.32L39 99.63 4.06 114.34z"/><path class="cls-1" d="M72.61 159v-4.17h-3.92v-35.9L63.41 117l-.87.52v37.26h-1v-38.45L54.83 114l-1.4.83v40h-1.8v-42l-8.33-3-2.41 1.42v43.5h-3.84v-43.5l-2.4-1.42-8.33 3v42h-1.81v-40l-1.39-.83-6.67 2.38v38.45h-1v-37.31l-.87-.52-5.28 1.88v35.9H5.34V159H0v5.47h78V159zM64 118.44l3.72 1.32v35H64zm-8.57-3l5.31 1.88v37.5h-5.35zm-10.94-3.89l5.76 2v41.22h-5.8zm-16.71 2l5.76-2v43.27h-5.8zm-10.49 3.72l5.3-1.88v39.38h-5.3zm-7 2.48l3.71-1.31v36.34h-3.74zm-3.79 36.1h65V159h-65zm70.21 7.26H1.27v-3h75.41zM141.43 132.46a13.51 13.51 0 01-3.67 4.81 15.77 15.77 0 01-5.45 2.91 22.65 22.65 0 01-6.7 1h-7.08v13.12h-9.34v-43.77h17.33a19.8 19.8 0 016.82 1.09 14.39 14.39 0 015.09 3.09 13.57 13.57 0 013.21 4.78 16.32 16.32 0 011.12 6.16v.12a15.72 15.72 0 01-1.33 6.69zm-8.12-6.62a6.06 6.06 0 00-2-4.94 8.37 8.37 0 00-5.54-1.69h-7.21v13.38h7.39a7.45 7.45 0 005.45-1.91 6.36 6.36 0 001.94-4.72zM224.71 154.27l-20.55-27.81v27.81H195v-43.74h8.61l19.87 26.93v-26.93h9.21v43.74zM262 119.4v34.87h-9.3V119.4h-12.91v-8.87h35.15v8.87zM308.63 154.27v-17.56h-17.21v17.56h-9.33v-43.74h9.33v17.31h17.21v-17.31H318v43.74zM328.14 154.27v-43.74h31.94v8.56h-22.72V128h20v8.56h-20v9.19h23v8.56zM410.78 141.4a23.32 23.32 0 01-4.81 7.37 22.49 22.49 0 01-7.34 5 24.52 24.52 0 01-18.54 0 23 23 0 01-7.3-4.94 22.1 22.1 0 01-4.79-7.3 23.64 23.64 0 01-1.71-9v-.13a23.29 23.29 0 016.56-16.4 22.3 22.3 0 017.33-5 23.3 23.3 0 019.29-1.83A23 23 0 01406 116a22.22 22.22 0 014.78 7.31 23.64 23.64 0 011.71 9v.13a23.28 23.28 0 01-1.71 8.96zm-8.26-9a15.22 15.22 0 00-1-5.45 13.52 13.52 0 00-2.73-4.48 13.11 13.11 0 00-4.19-3 13.26 13.26 0 00-10.6 0 12.28 12.28 0 00-4.1 3 14.26 14.26 0 00-2.67 4.45 15.19 15.19 0 00-1 5.42v.13a15.34 15.34 0 001 5.44 13.57 13.57 0 002.73 4.49 13.22 13.22 0 004.17 3 12.29 12.29 0 005.31 1.12 12.67 12.67 0 005.28-1.09 12 12 0 004.13-3 14.15 14.15 0 002.67-4.45 14.92 14.92 0 001-5.41zM448.17 154.27l-20.54-27.81v27.81h-9.21v-43.74H427l19.87 26.93v-26.93h9.21v43.74zM170.36 110.53h-8.87l-18 43.74H153l3.88-9.81h17.93l3.88 9.81h9.76zM160.17 136l5.64-14.19 5.63 14.19zM511.07 111.13h-9.86l-7.81 13.04-7.82-13.04h-9.86l12.86 21.08-13.79 22.06h9.55l9.06-14.4 4.85-7.73 12.82-21.01zM501.46 137.4l-4.88 7.52.24.39 5.63 8.96H512l-10.54-16.87z"/></svg>