<svg id="레이어_1" data-name="레이어 1" xmlns="http://www.w3.org/2000/svg" viewBox="0 0 512 256"><defs><style>.cls-1{fill:#fff;}</style></defs><rect class="cls-1" x="39.02" y="92.02"/><path class="cls-1" d="M39,104.67h0L70.7,116.15l4.44-.9v-6.52L39,91.58h0L2.81,108.73v6.52l4.43.9ZM39,92ZM4.06,109l34.2-16h0l.71-.33h0L73.89,109v5.32L39,99.63h0L4.06,114.34Z"/><path class="cls-1" d="M72.61,159v-4.17H68.69v-35.9L63.41,117l-.87.52v37.26h-1V116.33L54.83,114l-1.4.83v40h-1.8v-42l-8.33-3-2.41,1.42v43.5H37.05v-43.5l-2.4-1.42-8.33,3v42H24.51v-40L23.12,114l-6.67,2.38v38.45h-1V117.52l-.87-.52-5.28,1.88v35.9H5.34V159H0v5.47H78V159ZM64,118.44l3.72,1.32v35H64Zm-8.57-3,5.31,1.88v37.5H55.39Zm-10.94-3.89,5.76,2v41.22H44.45Zm-16.71,2,5.76-2v43.27H27.74Zm-10.49,3.72,5.3-1.88v39.38h-5.3Zm-7,2.48L14,118.44v36.34H10.26Zm-3.79,36.1h65V159h-65Zm70.21,7.26H1.27v-3H76.68Z"/><path class="cls-1" d="M141.43,132.46a13.51,13.51,0,0,1-3.67,4.81,15.77,15.77,0,0,1-5.45,2.91,22.65,22.65,0,0,1-6.7,1h-7.08v13.12h-9.34V110.53h17.33a19.8,19.8,0,0,1,6.82,1.09,14.39,14.39,0,0,1,5.09,3.09,13.57,13.57,0,0,1,3.21,4.78,16.32,16.32,0,0,1,1.12,6.16v.12A15.72,15.72,0,0,1,141.43,132.46Zm-8.12-6.62a6.06,6.06,0,0,0-2-4.94,8.37,8.37,0,0,0-5.54-1.69h-7.21v13.38h7.39a7.45,7.45,0,0,0,5.45-1.91,6.36,6.36,0,0,0,1.94-4.72Z"/><path class="cls-1" d="M224.71,154.27l-20.55-27.81v27.81H195V110.53h8.61l19.87,26.93V110.53h9.21v43.74Z"/><path class="cls-1" d="M262,119.4v34.87H252.7V119.4H239.79v-8.87h35.15v8.87Z"/><path class="cls-1" d="M308.63,154.27V136.71H291.42v17.56h-9.33V110.53h9.33v17.31h17.21V110.53H318v43.74Z"/><path class="cls-1" d="M328.14,154.27V110.53h31.94v8.56H337.36V128h20v8.56h-20v9.19h23v8.56Z"/><path class="cls-1" d="M410.78,141.4a23.32,23.32,0,0,1-4.81,7.37,22.49,22.49,0,0,1-7.34,5,24.52,24.52,0,0,1-18.54,0,23,23,0,0,1-7.3-4.94,22.1,22.1,0,0,1-4.79-7.3,23.64,23.64,0,0,1-1.71-9v-.13A23.29,23.29,0,0,1,372.85,116a22.3,22.3,0,0,1,7.33-5,23.3,23.3,0,0,1,9.29-1.83A23,23,0,0,1,406,116a22.22,22.22,0,0,1,4.78,7.31,23.64,23.64,0,0,1,1.71,9v.13A23.28,23.28,0,0,1,410.78,141.4Zm-8.26-9a15.22,15.22,0,0,0-1-5.45,13.52,13.52,0,0,0-2.73-4.48,13.11,13.11,0,0,0-4.19-3,13.26,13.26,0,0,0-10.6,0,12.28,12.28,0,0,0-4.1,3,14.26,14.26,0,0,0-2.67,4.45,15.19,15.19,0,0,0-1,5.42v.13a15.34,15.34,0,0,0,1,5.44,13.57,13.57,0,0,0,2.73,4.49,13.22,13.22,0,0,0,4.17,3,12.29,12.29,0,0,0,5.31,1.12,12.67,12.67,0,0,0,5.28-1.09,12,12,0,0,0,4.13-3,14.15,14.15,0,0,0,2.67-4.45,14.92,14.92,0,0,0,1-5.41Z"/><path class="cls-1" d="M448.17,154.27l-20.54-27.81v27.81h-9.21V110.53H427l19.87,26.93V110.53h9.21v43.74Z"/><path class="cls-1" d="M170.36,110.53h-8.87l-18,43.74H153l3.88-9.81h17.93l3.88,9.81h9.76ZM160.17,136l5.64-14.19L171.44,136Z"/><polygon class="cls-1" points="511.07 111.13 501.21 111.13 493.4 124.17 485.58 111.13 475.72 111.13 488.58 132.21 474.79 154.27 484.34 154.27 493.4 139.87 498.25 132.14 511.07 111.13"/><polygon class="cls-1" points="501.46 137.4 496.58 144.92 496.82 145.31 502.45 154.27 512 154.27 501.46 137.4"/></svg>