<svg xmlns="http://www.w3.org/2000/svg" viewBox="0 0 512 256"><defs><clipPath id="clip-path"><path class="cls-1" d="M62.16 90.04l-14.59 22.34 7.3 11.17 7.29-11.17 7.29 11.17 7.29-11.17-14.58-22.34z"/></clipPath><clipPath id="clip-path-2"><path class="cls-2" d="M0 65.71h512V190.3H0z"/></clipPath><clipPath id="clip-path-3"><path class="cls-1" d="M89.91 112.97H82l-19.4 30.06-19.41-30.06H29.01l33.59 52.02 33.59-52.02h-6.28z"/></clipPath><style>.cls-1,.cls-2,.cls-4{fill:#4c6ef5}.cls-1{clip-rule:evenodd}.cls-8{fill:#fff}.cls-4,.cls-8{fill-rule:evenodd}.cls-6{clip-path:url(#clip-path-2)}</style></defs><rect y="65.71" width="124.59" height="124.59" rx="47.79" fill="#fff"/><path class="cls-4" d="M62.16 90.04l-14.59 22.34 7.3 11.17 7.29-11.17 7.29 11.17 7.29-11.17-14.58-22.34z"/><g clip-path="url(#clip-path)"><path class="cls-2" d="M0 65.71h512V190.3H0z"/><g class="cls-6"><path class="cls-2" d="M43.31 85.77h37.7v42.04h-37.7z"/></g></g><path class="cls-4" d="M89.91 112.97H82l-19.4 30.06-19.41-30.06H29.01l33.59 52.02 33.59-52.02h-6.28z"/><g clip-path="url(#clip-path-3)"><path class="cls-2" d="M0 65.71h512V190.3H0z"/><g class="cls-6"><path class="cls-2" d="M24.75 108.7h75.71v60.56H24.75z"/></g></g><path class="cls-8" d="M229.55 93.83l-6.2 12.34-28.36 56.78-28.37-56.78-6.19-12.34h13.55l6.2 12.34 14.81 29.62 14.81-29.62 6.19-12.34h13.56zM302.08 128.39a34.56 34.56 0 11-34.56-34.56 34.6 34.6 0 0134.56 34.56m-12.34 0a22.22 22.22 0 10-22.22 22.21 22.25 22.25 0 0022.22-22.21M376.32 150.6V163h-35.7a22.34 22.34 0 01-20-12.35 21.12 21.12 0 01-2.32-9.67V93.83h12.58v48.28a9.92 9.92 0 008.54 8.39zM443.73 93.83v12.34h-28.38v56.78h-12.36v-56.78h-28.38V93.83h69.12zM512 162.95h-13.55l-6.2-12.35-14.81-29.62-14.81 29.62-6.2 12.35h-13.55l6.2-12.35 28.36-56.77 28.36 56.77 6.2 12.35z"/></svg>