<svg id="레이어_1" data-name="레이어 1" xmlns="http://www.w3.org/2000/svg" viewBox="0 0 512 256"><defs><style>.cls-1{fill:#2f82cd;}.cls-2{fill:#3483ce;}</style></defs><path class="cls-1" d="M213.23,89.19q0-21.68,0-43.35c0-.72.19-.87.87-.86q8.41,0,16.83,0c.69,0,.82.19.82.84q0,42.18,0,84.35A20.68,20.68,0,0,0,238,145.51a19.8,19.8,0,0,0,10.88,5.35A24.12,24.12,0,0,0,263,149.34c6.57-2.91,10.33-8.08,11.66-15a23,23,0,0,0-2-15.08c-3-6-8-9.41-14.57-10.65a26.58,26.58,0,0,0-5-.42c-3.78,0-7.57,0-11.36,0-.54,0-.74-.1-.74-.7q0-8.44,0-16.9c0-.43,0-.71.59-.71,4.5,0,9-.11,13.51.07,11,.42,20.53,4.33,28.1,12.5a38.33,38.33,0,0,1,9.45,18.79,42.69,42.69,0,0,1,.82,10.52c-.82,18.59-13.25,33.53-31.2,37.09a42.54,42.54,0,0,1-27.39-3.16,37,37,0,0,1-18.82-20.41,41.48,41.48,0,0,1-2.83-15.55Q213.26,109.45,213.23,89.19Z"/><path class="cls-1" d="M157.25,168.59c-8.26,0-16.52,0-24.79,0-.68,0-.77-.24-.77-.83,0-5.54,0-11.08,0-16.61,0-.67.16-.84.83-.84q24.4,0,48.81,0a6.69,6.69,0,0,0,3-.57,3.4,3.4,0,0,0,.57-5.72,9.29,9.29,0,0,0-3.45-1.7l-30-9.12A34.09,34.09,0,0,1,139.22,127a19.71,19.71,0,0,1-7.42-17.79,20.15,20.15,0,0,1,3.79-10.6,20.42,20.42,0,0,1,10.57-7.08A37.12,37.12,0,0,1,154.91,90c1.9-.13,3.79-.11,5.68-.11q21.42,0,42.86,0c.73,0,.85.21.85.88q0,8.34,0,16.69c0,.62-.17.75-.77.75q-22.77,0-45.56,0a13.34,13.34,0,0,0-3.83.44,3.51,3.51,0,0,0-1,6.38,14.4,14.4,0,0,0,4.34,1.91c9.58,3,19.16,5.87,28.73,8.85A38.2,38.2,0,0,1,197.32,131a17.43,17.43,0,0,1,7.4,13A23.88,23.88,0,0,1,203,156.54c-2.43,5.27-6.65,8.49-12,10.33a34.08,34.08,0,0,1-11,1.72Z"/><path class="cls-1" d="M380.3,146.77c0,7,0,14,0,21,0,.62-.13.83-.79.82q-8.47,0-17,0c-.63,0-.76-.19-.76-.78q0-19.7,0-39.4A21.24,21.24,0,0,0,358,116.1a19.68,19.68,0,0,0-13.72-8.35,23.34,23.34,0,0,0-13.53,1.61,19.71,19.71,0,0,0-11.4,13.71,22.12,22.12,0,0,0,3.48,19.21,19.76,19.76,0,0,0,13.58,8.11,33.46,33.46,0,0,0,15.28-1.47c.82-.26.82-.27.82.57,0,5.74,0,11.49,0,17.24,0,.62-.23.82-.77,1a43.36,43.36,0,0,1-13.55,1.51A39.16,39.16,0,0,1,301.1,138c-2.35-11.19-.63-21.77,5.61-31.42A37,37,0,0,1,329,90.38a43.22,43.22,0,0,1,28.9,2c9.71,4.19,16.18,11.52,19.81,21.4a45.35,45.35,0,0,1,2.61,15.74C380.31,135.28,380.3,141,380.3,146.77Z"/><path class="cls-1" d="M209.49,194.63a5.57,5.57,0,0,1,2.22,1c2.33,2,1.85,6.27-.91,7.93a7.82,7.82,0,0,1-4,1c-1.82,0-3.65,0-5.47,0-.47,0-.64-.12-.64-.62q0-8.75,0-17.51c0-.29-.07-.63.41-.62,2.42.06,4.85-.2,7.25.26a4.08,4.08,0,0,1,3.53,2.81,4.67,4.67,0,0,1-.92,4.66A4.19,4.19,0,0,1,209.49,194.63Zm-4.38,1.08a10.23,10.23,0,0,1-1.24,0c-.65-.08-.88.1-.86.81.06,1.63,0,3.27,0,4.91,0,1.31,0,1.32,1.29,1.31a12.85,12.85,0,0,0,4.32-.39,3.24,3.24,0,0,0,2.29-3.46,3,3,0,0,0-2.59-2.91A11.67,11.67,0,0,0,205.11,195.71ZM203,190.85v2.57c0,.22-.05.48.32.47a18.45,18.45,0,0,0,4.2-.23,2.79,2.79,0,0,0,2.37-3,2.71,2.71,0,0,0-2.7-2.71,33.2,33.2,0,0,0-3.73-.12c-.38,0-.47.14-.46.48C203.05,189.15,203,190,203,190.85Z"/><path class="cls-2" d="M324.76,192.62a4.78,4.78,0,0,1,.54,4.89,4.7,4.7,0,0,1-5.66,2.56c-.82-.24-1.09-.12-1.4.63a1.41,1.41,0,0,0,.6,1.91,3.88,3.88,0,0,0,1.55.28,30.29,30.29,0,0,1,4.15.12,3.1,3.1,0,0,1,2.8,1.93,3.78,3.78,0,0,1-.75,3.82,6.34,6.34,0,0,1-4.09,2.13,9.17,9.17,0,0,1-4.5-.33c-2.89-1-3.48-4-1.19-6,.47-.41.47-.57,0-1a2.7,2.7,0,0,1,.24-3.85c.48-.46.46-.69,0-1.18a5,5,0,0,1-.5-5.81,4.9,4.9,0,0,1,5.33-2.19,20.32,20.32,0,0,0,4.54.19c.6,0,.93.12.81.79a1.13,1.13,0,0,0,0,.41c.07.54-.12.75-.68.7S325.47,192.62,324.76,192.62Zm-3.48,16.79a12.42,12.42,0,0,0,1.33-.19,3.67,3.67,0,0,0,2.49-1.71,1.61,1.61,0,0,0-1.2-2.54,11.49,11.49,0,0,0-1.44-.12,19,19,0,0,1-3.45-.15.49.49,0,0,0-.46.09,2.78,2.78,0,0,0-1.13,2.26,2.05,2.05,0,0,0,1.28,1.82A6.24,6.24,0,0,0,321.28,209.41Zm-3.17-14c0,.1,0,.3,0,.51a2.81,2.81,0,0,0,3,2.67,3,3,0,0,0,2.5-3,3,3,0,0,0-2.36-3.45C319.46,192,318.14,193.27,318.11,195.43Z"/><path class="cls-2" d="M313.3,204.64h-.21c-.77.16-1.07-.21-1.25-.94-.35-1.4-.82-2.78-1.21-4.17a.66.66,0,0,0-.76-.58c-1.78,0-3.55,0-5.33,0a.63.63,0,0,0-.72.55c-.42,1.5-.91,3-1.33,4.5a.76.76,0,0,1-.86.66c-1.67,0-1.69,0-1.18-1.59q2.69-8.35,5.38-16.7a.58.58,0,0,1,.63-.48c2-.06,2-.07,2.66,1.86l5.16,16c.28.86.28.86-.64.86ZM307.24,188c0,.05-.09.07-.1.11-.76,2.8-1.55,5.58-2.43,8.35-.14.46.12.49.47.48,1.33,0,2.67,0,4,0,.54,0,.66-.1.5-.65C308.86,193.59,308.06,190.83,307.24,188Z"/><path class="cls-2" d="M138.5,205a8.54,8.54,0,0,1-5.94-2.3c-.36-.33-.51-.59-.09-1s.56-.88.93-1,.69.49,1.06.75a6,6,0,0,0,5.53,1.15,2.89,2.89,0,0,0,.64-5.28,36.4,36.4,0,0,0-3.67-1.77,10.69,10.69,0,0,1-2.11-1.19,4.77,4.77,0,0,1,.73-8.1,7,7,0,0,1,7.88,1.27c.3.3.27.48,0,.8-.8,1-.77,1-1.85.32a4.78,4.78,0,0,0-5-.54,2.54,2.54,0,0,0-.56,4.18,6.34,6.34,0,0,0,1.71,1c1.24.56,2.49,1.09,3.7,1.7a5.09,5.09,0,0,1,1.94,7.59A5.91,5.91,0,0,1,138.5,205Z"/><path class="cls-2" d="M171.58,197.79a7.52,7.52,0,0,1-2.18,5.6,5.67,5.67,0,0,1-8.73-1,8.39,8.39,0,0,1-.28-8.94,5.41,5.41,0,0,1,5.7-3,5.83,5.83,0,0,1,4.95,4.09A9.42,9.42,0,0,1,171.58,197.79Zm-2.34.23a6.82,6.82,0,0,0-1-4.06,3.24,3.24,0,0,0-5.63.08,7,7,0,0,0,0,7.31,3.25,3.25,0,0,0,5.51.27A5.81,5.81,0,0,0,169.24,198Z"/><path class="cls-2" d="M335,198.3h-3.95c-.2,0-.45-.09-.47.3a4.56,4.56,0,0,0,3.67,4.42,4.94,4.94,0,0,0,3.38-.72c.42-.27.62-.29.87.21.54,1.09.57,1.08-.51,1.64a6.4,6.4,0,0,1-9.63-5.41,8.45,8.45,0,0,1,1.77-6.35c2.1-2.51,6-2.66,8-.29a7.16,7.16,0,0,1,1.43,4.53c0,1.67,0,1.67-1.62,1.67Zm-1-1.69c1,0,2,0,3,0,.43,0,.6-.13.54-.55,0-.18,0-.37,0-.55a3.28,3.28,0,0,0-2.47-3.13,3.5,3.5,0,0,0-3.82,2,6.83,6.83,0,0,0-.58,1.7c-.11.43.05.56.49.55C332.09,196.59,333.06,196.61,334,196.61Z"/><path class="cls-2" d="M153,198.3c-1.27,0-2.54,0-3.81,0-.57,0-.63.19-.58.68.41,3.51,3.74,5.14,6.92,3.39.35-.19.64-.52,1,.13.52,1.06.57,1-.09,1.42a7,7,0,0,1-4.84,1,5.68,5.68,0,0,1-4.6-3.76,8.48,8.48,0,0,1,.85-8.31,5.29,5.29,0,0,1,7.76-1.23,6.17,6.17,0,0,1,1.91,4.47c.15,2.25.13,2.25-2.11,2.25Zm-1-1.69h2.14c1.58,0,1.6,0,1.26-1.55a3,3,0,0,0-2.36-2.67,3.31,3.31,0,0,0-3.54,1.46,5.67,5.67,0,0,0-.87,2.09c-.11.49,0,.71.54.68C150.07,196.57,151,196.61,152,196.61Z"/><path class="cls-2" d="M267.76,198.3c-1.24,0-2.49,0-3.73,0-.61,0-.68.21-.62.72.44,3.44,3.71,5.08,6.83,3.41.24-.13.55-.52.76-.28a4.66,4.66,0,0,1,.71,1.32c.06.15-.18.24-.32.33-4.16,2.6-9.45.89-10.2-4.69a8.51,8.51,0,0,1,1.4-6.31,5.43,5.43,0,0,1,6.94-1.79,5.33,5.33,0,0,1,2.58,3.9,11.12,11.12,0,0,1,.16,2.82c0,.43-.17.6-.63.59C270.35,198.28,269.06,198.3,267.76,198.3Zm-.94-1.69c.72,0,1.43,0,2.15,0,1.59,0,1.49.3,1.21-1.43a3,3,0,0,0-2.14-2.71,3.25,3.25,0,0,0-3.45,1,5.47,5.47,0,0,0-1.21,2.6c-.11.47.06.56.47.55C264.84,196.59,265.83,196.61,266.82,196.61Z"/><path class="cls-2" d="M249.73,192.71a15,15,0,0,1,1.92-1.55,4.68,4.68,0,0,1,2.14-.73c2.58-.16,4.22,1.29,4.33,4.08.12,3.23,0,6.46.06,9.69,0,.33-.11.47-.44.44h-.14c-1.64,0-1.64,0-1.64-1.59,0-2.47,0-4.93,0-7.4a5.27,5.27,0,0,0-.09-.89c-.38-2.09-2-2.88-3.91-1.87a8.11,8.11,0,0,0-1.77,1.43,1,1,0,0,0-.23.83c0,2.93,0,5.86,0,8.79,0,.52-.11.72-.69.72-1.61,0-1.61,0-1.61-1.64,0-3.83,0-7.66,0-11.49,0-.63.15-.89.79-.79a2,2,0,0,0,.49,0c.46-.06.67.11.66.61S249.67,192.17,249.73,192.71Z"/><path class="cls-1" d="M224.33,202.54c-.53.5-1,.93-1.43,1.33a4.39,4.39,0,0,1-2.57,1.08,3.58,3.58,0,0,1-4.17-3,8.41,8.41,0,0,1-.25-2c0-2.84,0-5.68,0-8.52,0-.52.14-.66.66-.65,1.59,0,1.59,0,1.59,1.58,0,2.36,0,4.71,0,7.07a8.56,8.56,0,0,0,.13,1.51,2.44,2.44,0,0,0,3.84,1.63,6.57,6.57,0,0,0,1.85-1.75,1.12,1.12,0,0,0,.15-.8c0-2.84,0-5.68,0-8.51,0-.6.19-.74.75-.73,1.52,0,1.52,0,1.52,1.53,0,3.86,0,7.71,0,11.57,0,.62-.14.85-.8.82-1.11-.06-1.11,0-1.2-1.16C224.37,203.23,224.36,203,224.33,202.54Z"/><path class="cls-2" d="M373.32,202.43l2.43-8.07c.32-1.06.66-2.11,1-3.18a.53.53,0,0,1,.58-.44c1.8-.08,1.8-.09,1.24,1.63l-4.44,13.38a9.54,9.54,0,0,1-1.83,3.46,4.15,4.15,0,0,1-4.15,1.28c-.36-.07-.6-.22-.41-.65a1.18,1.18,0,0,0,.06-.27c.24-1,.24-1,1.24-.95a2.36,2.36,0,0,0,1.94-.89,7,7,0,0,0,1.31-2.94c.07-.27-.09-.49-.18-.73q-2.4-6.3-4.79-12.59c-.28-.72-.27-.72.5-.72,1.58,0,1.59,0,2.11,1.51C371,195.59,372.24,198.9,373.32,202.43Z"/><path class="cls-2" d="M344.51,192.65c.56-.46,1.07-.92,1.62-1.32a4.46,4.46,0,0,1,2.43-.9c2.59-.14,4.19,1.32,4.3,4.21.12,3.17,0,6.36.06,9.55,0,.07,0,.16,0,.2-.55.56-1.24.13-1.86.24-.4.07-.36-.24-.36-.5,0-2.7,0-5.4,0-8.1a7.65,7.65,0,0,0-.14-1.51,2.3,2.3,0,0,0-3.07-1.94,5.92,5.92,0,0,0-2.73,1.91c-.21.21-.13.48-.13.73,0,2.88,0,5.77,0,8.65,0,.59-.1.81-.75.79-1.48,0-1.48,0-1.48-1.5,0-3.86,0-7.71,0-11.56,0-.74.22-.95.89-.86a2,2,0,0,0,.49,0c.38,0,.55.12.55.51A3.62,3.62,0,0,0,344.51,192.65Z"/><path class="cls-2" d="M182.76,202.4a14.41,14.41,0,0,1-1.17,1.35,4.55,4.55,0,0,1-3.9,1.17,3.6,3.6,0,0,1-3-3.16,9,9,0,0,1-.17-1.72c0-2.88,0-5.76,0-8.64,0-.53.14-.67.66-.66,1.57,0,1.57,0,1.57,1.54,0,2.47,0,4.94,0,7.41a7.34,7.34,0,0,0,.13,1.23,2.27,2.27,0,0,0,3.07,1.9,5.07,5.07,0,0,0,2.65-2.11,1.1,1.1,0,0,0,.1-.73c0-2.86,0-5.72,0-8.58,0-.52.13-.67.65-.66,1.6,0,1.6,0,1.6,1.57,0,3.85,0,7.71,0,11.56,0,.66-.2.87-.82.77a1.29,1.29,0,0,0-.34,0c-.63.11-.81-.2-.81-.77A3.74,3.74,0,0,0,182.76,202.4Z"/><path class="cls-2" d="M289.54,205a7.59,7.59,0,0,1-4.6-1.65c-.24-.18-.35-.32-.12-.6s.47-.9.84-1.07.74.39,1.11.61a5.12,5.12,0,0,0,3.63.77,2.07,2.07,0,0,0,1.74-1.65,1.85,1.85,0,0,0-.91-2,9.66,9.66,0,0,0-2.17-1,12.81,12.81,0,0,1-1.87-.89,3.47,3.47,0,0,1-1.86-3.83,3.86,3.86,0,0,1,3-3,6.32,6.32,0,0,1,5.25,1.09c.32.22.37.4.1.7s-.46.86-.8,1-.68-.36-1-.55a3.89,3.89,0,0,0-3.14-.34,1.67,1.67,0,0,0-1.18,1.4,1.64,1.64,0,0,0,.73,1.74,10.91,10.91,0,0,0,2.19,1,15.74,15.74,0,0,1,2.12,1,3.58,3.58,0,0,1,1.77,3.83,3.72,3.72,0,0,1-2.41,3.05A5.42,5.42,0,0,1,289.54,205Z"/><path class="cls-2" d="M278.63,205a7.65,7.65,0,0,1-4.61-1.62c-.33-.24-.31-.4-.1-.71.76-1.12.74-1.12,1.86-.41a5,5,0,0,0,3.48.83,2.12,2.12,0,0,0,1.9-1.57,2,2,0,0,0-1.1-2.25,22.81,22.81,0,0,0-2.89-1.31,7.43,7.43,0,0,1-1.32-.74,3.61,3.61,0,0,1,.69-6.3,6,6,0,0,1,6.13.85c.24.17.29.33.09.55l-.08.11c-.7,1.06-.7,1.06-1.79.45a4.07,4.07,0,0,0-2.6-.5,1.87,1.87,0,0,0-1.75,1.51,1.69,1.69,0,0,0,1,1.93,17.46,17.46,0,0,0,2.21,1c.56.26,1.14.5,1.68.79a3.54,3.54,0,0,1,1.95,3.8,3.77,3.77,0,0,1-2.57,3.23A5.47,5.47,0,0,1,278.63,205Z"/><path class="cls-2" d="M233.9,205a7.77,7.77,0,0,1-4.61-1.61c-.32-.24-.35-.41-.1-.71s.45-.87.8-1,.7.39,1.06.61a5.07,5.07,0,0,0,3.69.79,2,2,0,0,0,1.69-1.53,1.84,1.84,0,0,0-.84-2.09,10.24,10.24,0,0,0-2.23-1.09,13.71,13.71,0,0,1-1.93-.93,3.42,3.42,0,0,1-1.8-3.59,3.54,3.54,0,0,1,2.49-3,6.06,6.06,0,0,1,5.82,1c.23.16.31.3.11.55s-.47.88-.84,1.07-.72-.35-1.09-.55a4.3,4.3,0,0,0-2.68-.45,1.86,1.86,0,0,0-1.61,1.41,1.68,1.68,0,0,0,.9,2,14.67,14.67,0,0,0,2.33,1,12.78,12.78,0,0,1,1.75.84,3.56,3.56,0,0,1,1.82,3.8,3.78,3.78,0,0,1-2.43,3.11A5.32,5.32,0,0,1,233.9,205Z"/><path class="cls-2" d="M355.8,197.7c.09-2.63.85-4.94,3.24-6.42a5.65,5.65,0,0,1,6.64.44c.29.23.42.42.11.71a1.77,1.77,0,0,0-.16.22c-.24.31-.43.77-.74.87s-.56-.38-.87-.58a3.45,3.45,0,0,0-4.87,1.2,6.67,6.67,0,0,0-.09,7c1.17,2.08,3.76,2.42,5.73.83.45-.36.61-.32.88.16.65,1.14.67,1.13-.42,1.83a6,6,0,0,1-9-3.36A9.44,9.44,0,0,1,355.8,197.7Z"/><path class="cls-2" d="M188.92,193.47c0-2.81,0-5.63,0-8.45,0-.51.09-.72.67-.71,1.63,0,1.63,0,1.63,1.61v15.86c0,.62,0,1.22.89,1.24.41,0,.26.49.31.75.25,1.09.16,1.18-.95,1.2a2.11,2.11,0,0,1-2.42-2.09,10,10,0,0,1-.11-1.45Q188.91,197.46,188.92,193.47Z"/><path class="cls-1" d="M243.62,197.68c0,2.1,0,4.2,0,6.3,0,.48-.12.63-.62.63-1.63,0-1.63,0-1.63-1.61,0-3.83,0-7.66,0-11.49,0-.57.14-.75.72-.73,1.52,0,1.53,0,1.53,1.5Z"/><path class="cls-2" d="M242.53,184.9a1.43,1.43,0,0,1,1.5,1.54,1.53,1.53,0,1,1-1.5-1.54Z"/></svg>