<svg id="레이어_1" data-name="레이어 1" xmlns="http://www.w3.org/2000/svg" viewBox="0 0 512 256"><defs><style>.cls-1{fill:#00bdb6;}.cls-2{fill:#00bcb5;}.cls-3{fill:#00b3bd;}.cls-4{fill:#00b7ba;}.cls-5{fill:#00b5ba;}.cls-6{fill:#00b1be;}.cls-7{fill:#00b7b8;}.cls-8{fill:#00b2bb;}.cls-9{fill:#00bdc7;}.cls-10{fill:#00bab7;}.cls-11{fill:#00b5bb;}.cls-12{fill:#00b8b8;}.cls-13{fill:#0e3044;}.cls-14{fill:#163549;}</style></defs><path class="cls-1" d="M49,110c-3-1-5.54-3-8.28-4.52-7.09-4-14.09-8.08-21.14-12.13-4.6-2.64-4.8-7.16-.26-9.84,10.32-6.1,20.73-12.06,31.1-18.07C55.29,62.64,60.16,59.84,65,57c2-1.18,4-1.83,6.2-.52s2.59,3.19,2.58,5.48q0,26.46,0,52.93c0,1.21.14,2.48-1,3.36a21,21,0,0,0,.28-2.47q0-21.58,0-43.17c0-.42.29-1.07-.74-1.27a66.69,66.69,0,0,1-.39,7.1,24.56,24.56,0,0,1-2.54,9.16C66.11,94,62,100,58.59,106.32c-2.8,5.16-2.8,5.17-8.2,3.11C49.68,109.17,49.12,109,49,110Z"/><path class="cls-2" d="M8.24,159.57l-.15-.87A2.77,2.77,0,0,0,8.3,157q0-26.72,0-53.44a2.77,2.77,0,0,0-.21-1.7l.15-.86a6.84,6.84,0,0,1,5.43-3l.85.17a61,61,0,0,0,8.37,5.18c1,.58,1.93,1.54,3.25,1.49l.4.16a2.28,2.28,0,0,0,2.09,1.34l.62.21a9,9,0,0,0,4.8,2.89.19.19,0,0,1,.24.06c0,.44.34.58.68.82,2.41,1.66,5.32,2.52,7.46,4.6-.62,1,.21,1,.76,1.23,1.45.71,1.91,1.69,1.1,3.29s-2,2.85-2.83,4.37q-4.89,8.76-9.88,17.46c-1.75,3.07-3.74,6-5.29,9.17a18.73,18.73,0,0,1-9,8.87c-.76.37-1.53.75-1.59,1.76l-.4.39c-.6-.21-1.31-.88-1.54.39-1.07.86-2.18-.16-3.26.05-.45,0-.83-.08-1-.58C9.23,160.66,9.09,159.86,8.24,159.57Z"/><path class="cls-3" d="M121.16,108.74c5.73-3.74,11.75-7,17.7-10.37,3.43-2,7.41.59,7.43,4.66,0,8.46,0,16.93,0,25.39q0,14.34,0,28.69c0,1.45-.09,2.85-1.39,3.82a10.35,10.35,0,0,0,.32-3.88c.07-12.43-.22-24.85.31-37.28.24-5.68,0-11.37,0-17.06,0-.38.22-.94-.76-1.11,0,2.61,0,5.16,0,7.71a7.9,7.9,0,0,1-1.2,4.82c-3,4.51-5.67,9.29-8.46,14-3.91,6.57-7.11,13.55-11.45,19.89-.72,1.05-1.06,2.23-2.7,1.53a.89.89,0,0,0-1.16.47c-.27.65.37.73.71.93a36.35,36.35,0,0,1,4.69,2.65c1.81,1.4,4.25,1.86,5.62,3.87-3.27-1.36-6.17-3.39-9.22-5.14-4-2.27-8-4.38-11.75-7,0-.69-.4-.87-1-.75s-.9-.33-1.29-.61c-.13-.83-.64-1.1-1.43-.94H106c-.07-1.21-1.28-1.11-1.93-1.62-.92-.7-1.31-1.1-.42-2.25a28.16,28.16,0,0,0,3.31-5.4c2.56-5.58,6.15-10.55,9-15.93,1.25-2.37,3.32-4.54,2.82-7.6l.43-.26C120.42,110.42,120.78,109.55,121.16,108.74Z"/><path class="cls-4" d="M45.86,192.17l-.68-.29c-.4-1.37-1.81-1.42-2.76-2-2.42-1.6-5.23-2.6-7.36-4.67,1,.14,2.19,0,3,.49,2,1.15,2.68-.18,3.62-1.47,2.24-3.09,3.47-6.7,5.37-10,1.07-1.83,2.35-3.52,3.38-5.37,4-7.19,8.08-14.31,12.15-21.45A15.73,15.73,0,0,0,64.18,144c-2.15.76-3.83,1.94-5.85,2,.2-.32.32-.79.62-.94,3.82-2,7.18-5.21,12-4.58.09,0,.15,0,.18.07a1.87,1.87,0,0,0,1.4,1.21.35.35,0,0,1,.18.32,2.08,2.08,0,0,0,.79,2v19c-1.65,0-1.61,1.2-1.58,2.29a14.07,14.07,0,0,1-1,6.42,131.1,131.1,0,0,1-7.7,13.74c-1.81,2.95-3.68,5.88-5.2,9-.78,1.57-1.35,2.46-3.09,1.42a4.1,4.1,0,0,0-2.08-.27c-1.07.1-1.72-.7-2.52-1.18A15.76,15.76,0,0,0,45.86,192.17Z"/><path class="cls-5" d="M136.7,91.35a.81.81,0,0,1-.74.76,3.76,3.76,0,0,0-.92.23c-5.16,3-10.3,6-15.46,8.91-6.44,3.7-12.94,7.28-19.3,11.09-1.88,1.13-4.17,1.69-5.51,3.65a.43.43,0,0,1-.34.15,3.65,3.65,0,0,0-2.13.71c-3.13,1.51-5.78,4.82-9.91,2.76l-.4-.38a2.43,2.43,0,0,0,0-.38c.26,0,.52,0,.77,0,4.57.38,5.58-.25,7.82-4.41,2-3.78,4.36-7.39,6.27-11.26,1.65-3.32,3.81-6.38,5.67-9.59,3.1-5.33,6-10.75,9.23-16,2.75-4.57,1.65-4.48-1.67-7-.29-.21-.75-.19-1.06-.39s-.14-.43.09-.61a38.66,38.66,0,0,1,5.27,2.73c4.94,2.89,9.9,5.72,14.85,8.56,2,1.11,3.94,2.15,5.85,3.32C137.36,85.58,137.77,87.59,136.7,91.35Z"/><path class="cls-6" d="M135.55,168.07l.7.59c2.33,4.26,1.08,6.48-2.66,8.49-2.48,1.34-4.94,2.73-7.39,4.14q-9.4,5.44-18.78,10.93c-4.8,2.8-9.5,5.8-14.42,8.37-2.93,1.53-5.52,4.51-9.46,3.18.52-.6,1.31-.54,2-.68a8,8,0,0,0,5.53-4c2.12-3.59,4.13-7.23,6.14-10.88s4.41-7.38,6.53-11.13c3.26-5.76,6.39-11.61,9.9-17.22,1.1-1.75.4-2.29-.66-3.19-.4-.34-1.48-.38-.69-1.34a2.57,2.57,0,0,1,1.28.35c6.86,4,13.73,8,20.58,12A2.16,2.16,0,0,0,135.55,168.07Z"/><path class="cls-7" d="M109.14,69.59c-.23.18-.35.45-.09.61s.77.18,1.06.39c3.32,2.48,4.42,2.39,1.67,7-3.18,5.29-6.13,10.71-9.23,16-1.86,3.21-4,6.27-5.67,9.59-1.91,3.87-4.24,7.48-6.27,11.26-2.24,4.16-3.25,4.79-7.82,4.41-.25,0-.51,0-.77,0-1.11-1.06-.72-2.74-1.6-3.89v-1.15c.66-.56.4-1.32.4-2q0-9.86,0-19.72c1.34-.18,1.89.51,1.92,1.76,0,.52,0,1,0,1.55s-.19,1,.4,1.14.78-.39,1-.77.34-.69.53-1c2.17-3.7,4.2-7.5,6.56-11.08,3.35-5.1,5.56-10.81,8.88-15.92a1.32,1.32,0,0,0-.57-2.19A2.55,2.55,0,0,1,97.89,63c.53.24,1.07.46,1.58.74C102.74,65.6,106.17,67.22,109.14,69.59Z"/><path class="cls-8" d="M112.25,155.29c-.79,1,.29,1,.69,1.34,1.06.9,1.76,1.44.66,3.19-3.51,5.61-6.64,11.46-9.9,17.22-2.12,3.75-4.46,7.38-6.53,11.13s-4,7.29-6.14,10.88a8,8,0,0,1-5.53,4c-.65.14-1.44.08-2,.68-2.86-.88-2.61-3.43-2.66-5.54-.13-6.94,0-13.88,0-20.82.82-.08,1,.36,1.21,1.1.45,1.44-.24,2.79-.06,4.18.11.8.27,1.66,1.06,1.94,1,.35,1.06-.71,1.39-1.26,5.81-9.56,11.18-19.38,16.67-29.13,1.65-2.92,1.43-3.51-1.43-5.42a1.11,1.11,0,0,1-.62-.9,3.52,3.52,0,0,1,2.28.75c2.18,1.23,4.17,2.85,6.65,3.52l.35.14c.09.86.86,1,1.43,1.35C110.61,154.2,111.69,154.34,112.25,155.29Z"/><path class="cls-9" d="M32,104.87l-.42-.17c-.09-.47-.41-.6-.84-.57-.75-.1-1.25-.68-1.88-1,.19-.45-1.56-1,.07-1.37l1.87,1c.23.74.87.87,1.5,1C41,108,49.1,113.19,57.49,118l15.76,9a7.41,7.41,0,0,0,7.74-.06q12.24-7,24.45-14c8.64-5,17.25-10,25.93-14.93,1.7-1,3.35-2,5-3,3.19-2,6.52-2.3,9.72-.46a9.28,9.28,0,0,1,4.83,8.65q-.09,32,0,64a9.7,9.7,0,0,1-5.25,9L92.51,206.77c-3.29,1.89-6.57,3.79-9.83,5.73-4,2.38-7.92,2.12-11.86-.2-7.54-4.45-15.11-8.85-22.66-13.28-4-2.35-7.95-4.73-11.93-7.1a.66.66,0,0,0-.81-.53h0a1.07,1.07,0,0,0-1.27-.76l-.66-.3c-.1-.42-.4-.53-.79-.52h0c-.26-.36-.53-.71-.87-1.16l1.79.31.64.26c.09.45.4.57.81.54h0a1.07,1.07,0,0,0,1.3.75l.63.27c.23.71.87.83,1.47,1l.07.06a1.26,1.26,0,0,0,1.13.7c3.15.89,5.65,3,8.43,4.54C56,201.5,63.76,206,71.48,210.64c3.87,2.33,7.34,2.13,11.18-.12C97.77,201.68,113,193,128.12,184.24c5.64-3.25,11.24-6.55,16.88-9.79a8.06,8.06,0,0,0,4.23-7.5c0-21.26,0-42.51.05-63.77,0-5.52-5.52-10.56-11.73-7l-28.23,16.34c-9.25,5.35-18.48,10.73-27.77,16a9,9,0,0,1-9.25-.08c-8.95-5.11-17.85-10.29-26.75-15.46-3.38-2-6.73-4-10.1-5.93a.68.68,0,0,0-.77-.66l-1.94-1.06C32.64,105,32.35,104.89,32,104.87Z"/><path class="cls-10" d="M15.68,161.11c.06-1,.83-1.39,1.59-1.76a18.73,18.73,0,0,0,9-8.87c1.55-3.16,3.54-6.1,5.29-9.17q5-8.7,9.88-17.46c.85-1.52,2-2.79,2.83-4.37s.35-2.58-1.1-3.29c-.55-.27-1.38-.27-.76-1.23l3.13,1.16.36.15c0,.54.52.72.89.94,2.92,1.7,5.79,3.51,8.8,5,2.51,1.27,4.67,3.17,7.41,4,.44.31,1,.55,1.15,1.12a6.71,6.71,0,0,1,0,6l-.68.62c-1.83.84-3.75,1.55-5.13,3.13l-.71.35c-1.6.59-3.29,1-4.33,2.56l-.36.14c-2.1.36-3.71,1.76-5.43,2.82-2.6,1.59-5.57,2.61-7.8,4.82l-.09.07-.57.23-1.53,1c-1.37.42-2.77.8-3.61,2.13l-.38.15c-.52,0-1.08-.06-1.17.68a.3.3,0,0,1-.3.12c-1.8.38-3.17,1.6-4.73,2.45C23.43,156.79,19.71,159.23,15.68,161.11Z"/><path class="cls-6" d="M130.86,157.43c-1.37-2-3.81-2.47-5.62-3.87a36.35,36.35,0,0,0-4.69-2.65c-.34-.2-1-.28-.71-.93a.89.89,0,0,1,1.16-.47c1.64.7,2-.48,2.7-1.53,4.34-6.34,7.54-13.32,11.45-19.89,2.79-4.67,5.42-9.45,8.46-14a7.9,7.9,0,0,0,1.2-4.82c0-2.55,0-5.1,0-7.71,1,.17.76.73.76,1.11,0,5.69.21,11.38,0,17.06-.53,12.43-.24,24.85-.31,37.28a10.35,10.35,0,0,1-.32,3.88.68.68,0,0,1-.58.54,7.06,7.06,0,0,1-6.43-.33c-.14-.08-.38,0-.57,0h-.16l-.12-.1a2.06,2.06,0,0,0-2.19-1.4h-.14c-.29-1.36-1.18-1.68-2.42-1.43Z"/><path class="cls-11" d="M99.06,147.92a1.11,1.11,0,0,0,.62.9c2.86,1.91,3.08,2.5,1.43,5.42-5.49,9.75-10.86,19.57-16.67,29.13-.33.55-.4,1.61-1.39,1.26-.79-.28-1-1.14-1.06-1.94-.18-1.39.51-2.74.06-4.18-.23-.74-.39-1.18-1.21-1.1,0-9.61,0-19.21,0-28.82A17,17,0,0,1,82,141.28v0c3.14-1.94,5.77-.68,8.49,1.1,1.9,1.23,3.78,2.6,6.06,3.13a.2.2,0,0,1,.24.08c.06,1,1.26.8,1.55,1.54a.7.7,0,0,0,.78.77Z"/><path class="cls-12" d="M58.33,146c2,0,3.7-1.2,5.85-2a15.73,15.73,0,0,1-1.59,3.36c-4.07,7.14-8.16,14.26-12.15,21.45-1,1.85-2.31,3.54-3.38,5.37-1.9,3.28-3.13,6.89-5.37,10-.94,1.29-1.62,2.62-3.62,1.47-.82-.48-2-.35-3-.49h0c-.15-.82-.51-1-1.16-.39a1.89,1.89,0,0,0-1.35-.31l-1.35-.59c-.07-.67-.63-.8-1.1-1.12-1.45-1-3.31-1.42-4.34-3,.89.06,1.87-.27,2.66.21,1.33.81,2,.24,2.55-.93,1.87-3.8,4.08-7.41,6.27-11,2.1-3.46,3.81-7.14,6.17-10.45.25-.34.68-.82.34-1.2-.48-.55-.92,0-1.33.29a3.19,3.19,0,0,1-3.47.23l1.17-1.35,1.16-.59c.66-.1,1.31-.22,1.55-1l.43-.16c.83-.34,2-.17,2.29-1.38l.41-.17a.69.69,0,0,0,.75-.51l.72-.3a4.19,4.19,0,0,0,2.77-1.67l.62-.31a12.79,12.79,0,0,0,5.2-3.1l1.5-.8A.79.79,0,0,0,58.33,146Z"/><path class="cls-10" d="M97.89,63a2.55,2.55,0,0,0,1.71,2.55,1.32,1.32,0,0,1,.57,2.19c-3.32,5.11-5.53,10.82-8.88,15.92C88.93,87.24,86.9,91,84.73,94.74c-.19.34-.33.7-.53,1s-.54.86-1,.77-.38-.73-.4-1.14,0-1,0-1.55c0-1.25-.58-1.94-1.92-1.76,0-10.13,0-20.27,0-30.4,0-3.79,2-5.71,5.43-5.27a8,8,0,0,1,2.64,1.09c2.65,1.39,5,3.28,7.89,4.3l.69.28C97.51,62.44,97.52,62.8,97.89,63Z"/><path class="cls-13" d="M262.83,112.43c.5-.64.28-1.32.28-1.94,0-7.06.06-14.12,0-21.18,0-1.68.48-2.2,2.14-2.15s2.43.22,2.41,2.18q-.15,14.28,0,28.57c0,1.78-.59,2.17-2.3,2.29-2.42.16-3.64-.72-4.68-2.91-3.27-6.89-6.79-13.67-10.27-20.47-.24-.46-.26-1.43-1-1.28s-.51,1.1-.51,1.7c0,6.79,0,13.58,0,20.38,0,2.28-1.69,3.37-3.81,2.45-.91-.39-.66-1.22-.66-1.91q0-10.59,0-21.18c0-2.66.05-5.33,0-8-.05-1.41.51-1.67,1.85-1.85,2.77-.36,4.14.82,5.28,3.24,3.3,7,6.83,13.81,10.29,20.69C262,111.57,262.21,112.16,262.83,112.43Z"/><path class="cls-13" d="M490.16,103.61c0-4.8,0-9.59,0-14.39,0-1.57.36-2.3,2.12-2.17,3.77.3,7.57-.33,11.34.54,3.61.83,6,2.9,6.78,6.48.73,3.27-.55,5.86-3.37,7.68-.85.55-1,1,.09,1.51,3.68,1.86,5.3,4.71,4.82,8.32a9.12,9.12,0,0,1-7.08,8c-4.47,1-9,.49-13.54.58-1.35,0-1.12-1.1-1.13-1.91C490.15,113.34,490.16,108.48,490.16,103.61Zm8.23,1.17c-.86,0-1.73,0-2.59,0a1.07,1.07,0,0,0-1.22,1.22c0,3,0,6,0,9a1.16,1.16,0,0,0,1.24,1.27,23.88,23.88,0,0,0,7.72-.63,5.39,5.39,0,0,0,3.65-5,5.47,5.47,0,0,0-3.32-5A13.16,13.16,0,0,0,498.39,104.78ZM494.58,96c0,5.25,0,5.25,5.26,4.92.53,0,1.06-.06,1.59-.14,2.78-.47,4.59-2.43,4.57-4.94s-1.7-4.13-4.63-4.58C495,90.3,494.58,90.6,494.58,96Z"/><path class="cls-13" d="M269.8,141.13c7.63,0,13,4.73,14.35,12.26.9,5.16.52,10.1-2,14.71-2.79,5.2-7.57,7.19-13.18,6.92-6.2-.29-10.7-3.4-12.8-9.4a21,21,0,0,1,.6-16.3C259.35,143.85,263.74,141.13,269.8,141.13ZM280,158a17.13,17.13,0,0,0-.61-4.74,10.08,10.08,0,0,0-8.08-8.09c-4.28-.6-7.78,1.18-9.93,5.4a16,16,0,0,0,.53,16.19c3.8,6.36,12.53,6,16.18-.5C279.53,163.64,279.8,160.81,280,158Z"/><path class="cls-11" d="M118.8,110.2c.5,3.06-1.57,5.23-2.82,7.6-2.84,5.38-6.43,10.35-9,15.93a28.16,28.16,0,0,1-3.31,5.4c-.89,1.15-.5,1.55.42,2.25.65.51,1.86.41,1.93,1.62-3.94-1.63-7.34-4.22-11.1-6.17-1.09-.57-2.11-1.25-3.16-1.87-4.2-2.47-4.3-6.78-.08-9.3,7-4.19,14.09-8.26,21.18-12.31C114.81,112.24,116.6,110.84,118.8,110.2Z"/><path class="cls-10" d="M49,110c.1-1,.66-.84,1.37-.58,5.4,2.06,5.4,2,8.2-3.11C62,100,66.11,94,69.39,87.61a24.56,24.56,0,0,0,2.54-9.16,66.69,66.69,0,0,0,.39-7.1c1,.2.74.85.74,1.27q0,21.59,0,43.17a21,21,0,0,1-.28,2.47c0,1-.89,1.18-1.53,1.58-.13-.21-.25-.52-.54-.42-.46.16-.31.62-.35,1a4,4,0,0,1-3.49,0c-.06-.63-.46-.76-1-.68a3.72,3.72,0,0,1-1.72-.85A2,2,0,0,0,62,117.38l-.53-.11c-1-1.68-2.68-2.2-4.41-2.64a1.25,1.25,0,0,1-1-.52c-.14-1-.85-1.14-1.69-1h-.14l-.11-.07a2.07,2.07,0,0,0-2.17-1.46l-.54-.1c0-.61-.43-.77-1-.69l-.11,0-.09-.07c0-.65-.41-.83-1-.73Z"/><path class="cls-13" d="M391.82,103.78c0,4.79-.08,9.59,0,14.38,0,1.8-.71,2.13-2.26,2.06-1.38-.06-2.61.17-2.52-2,.15-3.79,0-7.6.07-11.39,0-1.47-.44-2-1.93-2-3.27.09-6.53.1-9.79,0-1.63-.05-2.05.6-2,2.12.08,3.8-.05,7.6.07,11.39.05,1.86-1,1.84-2.28,1.8s-2.5.19-2.49-1.84q.12-14.69,0-29.37c0-2.06,1.28-1.74,2.54-1.81s2.27.13,2.21,1.89c-.11,3.4,0,6.8-.06,10.19,0,1.33.44,1.75,1.71,1.73,3.4,0,6.8-.07,10.19,0,1.37,0,1.88-.37,1.84-1.8-.1-3.4,0-6.8-.08-10.19-.06-1.83.9-1.9,2.25-1.83s2.56-.28,2.52,1.8C391.75,93.92,391.82,98.85,391.82,103.78Z"/><path class="cls-13" d="M317.49,153.67c0,3.19.09,6.39,0,9.58-.37,11.07-10.67,14-18,10.46-4.13-2-5.59-5.94-5.66-10.29-.11-6.66,0-13.32-.06-20,0-2.05,1.19-1.79,2.48-1.84,1.44,0,2.4.08,2.37,2-.09,6.33,0,12.65,0,19a11.94,11.94,0,0,0,.48,3.95,6.25,6.25,0,0,0,6.56,4.48,6.47,6.47,0,0,0,6.56-4.8,12.57,12.57,0,0,0,.63-4.12c0-6.19.07-12.38-.05-18.57,0-2,1-1.9,2.38-1.9s2.47-.14,2.38,1.88C317.38,146.87,317.49,150.27,317.49,153.67Z"/><path class="cls-13" d="M306.76,103.59c0-4.73.06-9.46,0-14.19,0-1.61.36-2.27,2.1-2.23q7.29.15,14.59,0c1.64,0,1.84.72,1.83,2.06s-.13,2.15-1.8,2.09c-3.13-.12-6.27.05-9.39-.07-1.93-.08-2.87.43-2.64,2.55a29.46,29.46,0,0,1,0,4.79c-.1,1.63.47,2.29,2.16,2.23,3.12-.09,6.26.07,9.38-.06,1.76-.07,1.71.88,1.73,2.12s-.05,2.14-1.77,2.07c-3.19-.13-6.39,0-9.59-.06-1.53,0-2,.63-1.91,2,.07,2.33.1,4.66,0,7-.07,1.49.45,2,1.92,2,3.46-.06,6.93,0,10.39-.05,1.58,0,2.12.46,2.08,2.05s-.16,2.37-2,2.33c-5-.11-10-.09-15,0-1.56,0-2.1-.46-2.08-2C306.81,113.31,306.75,108.45,306.76,103.59Z"/><path class="cls-13" d="M228.42,158.1c0-4.8.05-9.59,0-14.38,0-1.55.41-2.15,2-2.13q7.38.12,14.77,0c1.57,0,1.72.76,1.7,2s.05,2.22-1.72,2.16c-3.32-.11-6.65,0-10-.06-1.51,0-2.21.4-2.1,2a54.86,54.86,0,0,1,0,5.59c0,1.38.5,1.9,1.88,1.88,3.12-.06,6.26.1,9.38-.07,1.89-.1,2,.79,2,2.26.08,1.69-.62,2-2.11,2-3.06-.09-6.12,0-9.19,0-1.44,0-2,.49-2,2,.08,2.39.08,4.79,0,7.18-.05,1.41.55,1.89,1.89,1.88,3.46-.05,6.92.06,10.38-.05,1.78-.06,2.08.73,2.1,2.27s-.54,2.06-2.09,2c-4.93-.08-9.85-.11-14.78,0-1.83,0-2.24-.63-2.2-2.33C228.49,167.55,228.42,162.82,228.42,158.1Z"/><path class="cls-13" d="M468,87.11c1.83-.43,2.67.24,3.31,2.1,3.34,9.73,6.87,19.4,10.36,29.08.44,1.22.2,1.68-1.17,1.71-3.31.07-3.31.12-4.41-2.9-.63-1.75-1.32-3.49-1.81-5.28a1.83,1.83,0,0,0-2.1-1.59c-2.86.06-5.73.07-8.59,0a1.89,1.89,0,0,0-2.14,1.55c-.73,2.27-1.6,4.51-2.46,6.74-.48,1.24-3.48,2.1-4.56,1.33-.57-.41-.3-.89-.12-1.42q4.59-13,9.14-25.92a22.9,22.9,0,0,0,1.15-3.18C465,87.33,466.05,86.63,468,87.11Zm-.07,19.12h2c2.32,0,2.44-.16,1.76-2.35-1-3.22-2-6.43-3.06-9.64-.12-.37-.15-.83-.69-.83s-.56.46-.68.83Q466,98.11,464.7,102C463.3,106.23,463.3,106.23,467.89,106.23Z"/><path class="cls-11" d="M52.9,195.63a4.1,4.1,0,0,1,2.08.27c1.74,1,2.31.15,3.09-1.42,1.52-3.1,3.39-6,5.2-9A131.1,131.1,0,0,0,71,171.76a14.07,14.07,0,0,0,1-6.42c0-1.09-.07-2.31,1.58-2.29.13,12.54.19,25.07,0,37.61a4.44,4.44,0,0,0-.5.57c-2.2,3.38-4.1,3.85-7.58,1.83-1-.58-2-1.11-3-1.71C59.26,199.41,55.9,197.81,52.9,195.63Z"/><path class="cls-13" d="M206.82,175.16a42,42,0,0,1-7.31-1.27c-1.08-.37-1.76-3.75-.91-4.51.52-.47,1-.11,1.47.1a17.22,17.22,0,0,0,9.16,1.29c2.6-.36,4.44-1.77,4.85-3.79a5.2,5.2,0,0,0-2.78-5.69c-1.83-1.07-3.78-1.93-5.65-2.94a37,37,0,0,1-3.93-2.34c-2.89-2.06-4.41-4.79-3.56-8.42s3.5-5.41,6.88-6.13c3.72-.8,7.42-.16,11.05.75.93.23,1.53,2.54,1,3.88s-1.45.44-2.18.22a20.07,20.07,0,0,0-7.24-1.13c-2.27.15-4,1.34-4.44,3.09-.53,2,.17,3.55,2.5,4.85,2.72,1.53,5.54,2.88,8.27,4.38,4.18,2.27,5.74,5.61,4.9,10.32-.61,3.4-3.85,6.16-8,6.78C209.54,174.81,208.16,175,206.82,175.16Z"/><path class="cls-13" d="M333.21,103.06c0-7.73,3.44-13.46,10-15.62,5-1.66,10.79-.94,14.3,3.26A9,9,0,0,1,359,93.06c.45,1.16,1,2.73.22,3.6s-2.51.29-3.82.33c-.69,0-.75-.61-.88-1.14-1.2-4.72-5.19-6.54-9.85-4.58a10,10,0,0,0-6,7,17.75,17.75,0,0,0,.89,12.25c3.3,7.21,12.15,7.15,16.64,4.5.6-.36,1.15-1.24,1.89-.88s.19,1.32.33,2c.4,2-.71,2.9-2.47,3.36-4.85,1.26-9.73,1.92-14.39-.52C336.17,116.19,333.22,110.36,333.21,103.06Z"/><path class="cls-10" d="M39,156.85a3.19,3.19,0,0,0,3.47-.23c.41-.27.85-.84,1.33-.29.34.38-.09.86-.34,1.2-2.36,3.31-4.07,7-6.17,10.45-2.19,3.62-4.4,7.23-6.27,11-.57,1.17-1.22,1.74-2.55.93-.79-.48-1.77-.15-2.66-.21-1.79-.1-3-1.64-4.7-1.93-.78,0-1.24-.68-1.89-1a.68.68,0,0,0-.75-.6,1.85,1.85,0,0,1-1.22-1.09,6.5,6.5,0,0,1,0-5.86,1.87,1.87,0,0,1,1.43-1.23,2.33,2.33,0,0,0,2.06-1.34l.39-.16c.37,0,.67-.11.77-.51l.71-.3c.44,0,.77-.09.84-.58l.42-.16a9.72,9.72,0,0,0,4.63-2.79l.77-.32a2.22,2.22,0,0,0,1.94-1.23,2.87,2.87,0,0,1,1.44-.75,1.08,1.08,0,0,0,1.28-.81,3.2,3.2,0,0,1,1.47-.79l.11.13c.08.68.58,1,.94.46s2-.31,1-1.6c0-.08,0-.17,0-.25l.62-.25Z"/><path class="cls-14" d="M200.29,103.65c0-4.79.05-9.58,0-14.38,0-1.51.32-2.15,2-2.11q7.29.14,14.58,0c1.62,0,2,.59,2,2.11s-.48,2.11-2.06,2.06c-3.4-.09-6.79,0-10.19,0-1.3,0-1.79.46-1.75,1.75.06,2.07.08,4.13,0,6.19-.05,1.29.37,1.77,1.7,1.74,3.33-.08,6.66.06,10-.06,1.79-.07,1.66.95,1.7,2.14s-.12,2-1.69,1.94c-3-.12-6,0-9,0-2.68,0-2.68,0-2.68,2.78,0,3.46-.11,6.93,0,10.39.09,2-.82,2.1-2.39,2.15s-2.34-.4-2.29-2.23C200.37,113.24,200.29,108.45,200.29,103.65Z"/><path class="cls-13" d="M289.44,105.84c0,4.12-.09,8.25.05,12.38.06,1.88-.84,2-2.31,2s-2.36,0-2.34-2c.1-8.19,0-16.38.09-24.56,0-1.77-.47-2.37-2.24-2.23s-3.73,0-5.59.06c-1.51.07-1.58-.8-1.53-1.91s-.33-2.38,1.51-2.38q10.19,0,20.37,0c1.58,0,1.46,1,1.4,2s.44,2.28-1.37,2.24c-2,0-4,.09-6,0-1.74-.12-2.12.58-2.08,2.18C289.5,97.71,289.44,101.78,289.44,105.84Z"/><path class="cls-14" d="M430.6,103.37c0-4.67.11-9.33-.05-14-.06-2,.56-2.45,2.46-2.44s2.37.49,2.34,2.36c-.1,8.06,0,16.12-.09,24.17,0,2,.61,2.5,2.49,2.42,3.39-.14,6.8,0,10.19-.07,1.56,0,2.1.45,2.09,2s-.38,2.15-2,2.12c-5.19-.08-10.39-.07-15.58,0-1.4,0-1.86-.42-1.84-1.83C430.64,113.22,430.6,108.3,430.6,103.37Z"/><path class="cls-13" d="M329.13,157.86c0-4.86.08-9.72,0-14.58,0-2,1-1.93,2.38-1.92s2.42-.14,2.39,1.87c-.1,8.19,0,16.38-.1,24.57,0,2.11.66,2.6,2.61,2.52,3.46-.14,6.93,0,10.39-.07,1.5,0,1.81.6,1.75,1.91s.14,2.25-1.66,2.22c-5.33-.08-10.66-.06-16,0-1.49,0-1.77-.64-1.76-1.94C329.16,167.58,329.13,162.72,329.13,157.86Z"/><path class="cls-14" d="M227.5,103.61c0-4.85.08-9.7,0-14.55-.05-2,1.07-1.87,2.41-1.89s2.39-.08,2.37,1.9q-.13,14.55,0,29.11c0,1.85-.82,2-2.29,2s-2.56.09-2.5-2C227.59,113.32,227.5,108.46,227.5,103.61Z"/><path class="cls-1" d="M33.65,189l-1.79-.31c.34.45.61.8.87,1.16-2.78-.93-5.09-2.73-7.6-4.15-5.43-3.07-10.81-6.25-16.19-9.42a2.57,2.57,0,0,0-2.69-.15A4.16,4.16,0,0,1,.92,174.7a3.84,3.84,0,0,1,.13-5.14,4.29,4.29,0,0,1,4.87-1.37,4.34,4.34,0,0,1,2.74,4.95c-.24,1.21.52,1.48,1.22,1.88,6,3.43,12,6.79,17.93,10.28C29.79,186.46,32,187.3,33.65,189Z"/><path class="cls-9" d="M82,141.28a17,17,0,0,0-1.14,7.31c0,9.61,0,19.21,0,28.82,0,6.94-.09,13.88,0,20.82.05,2.11-.2,4.66,2.66,5.54,3.94,1.33,6.53-1.65,9.46-3.18,4.92-2.57,9.62-5.57,14.42-8.37q9.39-5.47,18.78-10.93c2.45-1.41,4.91-2.8,7.39-4.14,3.74-2,5-4.23,2.66-8.49,2.71,1.9,2.53,5.92-.53,7.86-4,2.5-8.06,4.82-12.13,7.18q-13.19,7.63-26.42,15.23c-2.9,1.67-5.84,3.28-8.71,5-4.1,2.49-8.38-.31-8.35-5,.12-17.83.06-35.67.07-53.5C80.18,143.84,80.27,142.22,82,141.28Z"/><path class="cls-9" d="M29.24,72.7C34,69.41,39,66.67,44,63.78q13.74-8,27.52-15.9c.45-.25.92-.47,1.37-.7.57.41-.61.74-.09,1,2.3,1.31,4.64,2.5,7.29.82-1.45,1.94-3.28,2.34-5.34,1a2.49,2.49,0,0,0-3.11-.17C61.51,55.76,51.34,61.58,41.17,67.4c-3.89,2.24-7.69,4.63-11.78,6.51-.49,0-.89-.21-.9-.81h0A.77.77,0,0,0,29.24,72.7Zm40.85-23c1,.1,1.14-.5,1.63-.94C70.84,48.63,70.51,49.05,70.09,49.71Zm-2.34,1.4-.14,0,0,.2a.37.37,0,0,0,.15,0S67.75,51.15,67.75,51.11Zm.94-.76s0,.1,0,.12.1,0,.15,0l0-.21Z"/><path class="cls-1" d="M28.49,73.1c0,.6.41.76.9.81-1.07,1.26-2.63,1.8-4,2.61-2.58,1.56-5.27,3-7.87,4.49s-4.46,3.82-4.33,7.18,1.87,5.3,4.61,6.8c3.37,1.84,6.66,3.83,10,5.77.44.25,1,.43,1.14,1-1.63.38.12.92-.07,1.37-2.26-.77-4.17-2.21-6.21-3.39-2.38-1.37-4.79-2.72-7.07-4.25a9.06,9.06,0,0,1,0-15.15c3.93-2.54,8.08-4.75,12.13-7.09A2.57,2.57,0,0,1,28.49,73.1Zm-1.07,1.29a.55.55,0,0,0-.17,0s0,.09-.05.14a.55.55,0,0,0,.17,0S27.4,74.44,27.42,74.39Z"/><path class="cls-1" d="M96.8,61.81c-2.86-1-5.24-2.91-7.89-4.3a8,8,0,0,0-2.64-1.09c-3.44-.44-5.43,1.48-5.43,5.27,0,10.13,0,20.27,0,30.4q0,9.85,0,19.72c0,.68.26,1.44-.4,2-.43-.58-.25-1.25-.25-1.88q0-24.92,0-49.82a7.25,7.25,0,0,1,.76-3.92c1.15-2,3.84-3.3,6-2.26A42.32,42.32,0,0,1,96.8,61.81Z"/><path class="cls-6" d="M80.07,49c-2.65,1.68-5,.49-7.29-.82-.52-.3.66-.63.09-1a2.58,2.58,0,0,1,.09-1.6c.56-.19.62-.76.88-1.18A3.61,3.61,0,0,1,80,44.25a9.47,9.47,0,0,1,1,2.41l-.09.78a1.73,1.73,0,0,0-.9,1.61Z"/><path class="cls-1" d="M8.09,101.86a2.77,2.77,0,0,1,.21,1.7q0,26.72,0,53.44a2.77,2.77,0,0,1-.21,1.7c-.71-.52-.47-1.3-.47-2q0-26.44,0-52.9C7.62,103.15,7.38,102.38,8.09,101.86Z"/><path class="cls-1" d="M97.89,63c-.37-.2-.38-.56-.4-.91a54.74,54.74,0,0,1,7.9,4.28c10,5.73,19.94,11.54,29.91,17.3,3.09,1.78,3.81,5.63,1.4,7.68,1.07-3.76.66-5.77-1.59-7.15-1.91-1.17-3.9-2.21-5.85-3.32-4.95-2.84-9.91-5.67-14.85-8.56a38.66,38.66,0,0,0-5.27-2.73c-3-2.37-6.4-4-9.67-5.85C99,63.46,98.42,63.24,97.89,63Z"/><path class="cls-1" d="M94.77,116c1.34-2,3.63-2.52,5.51-3.65,6.36-3.81,12.86-7.39,19.3-11.09,5.16-3,10.3-6,15.46-8.91a3.76,3.76,0,0,1,.92-.23c-1.34,1.88-3.55,2.47-5.39,3.55-8.9,5.25-17.88,10.38-26.87,15.48C100.76,112.81,98,114.89,94.77,116Z"/><path class="cls-1" d="M52.9,195.63c3,2.18,6.36,3.78,9.51,5.72,1,.6,2,1.13,3,1.71,3.48,2,5.38,1.55,7.58-1.83a4.44,4.44,0,0,1,.5-.57c.17,2.76-3.69,5.45-7,3.75s-6.28-3.55-9.4-5.35c-3.35-1.92-6.7-3.82-10-5.78-.47-.27-1.12-.43-1.26-1.11a15.76,15.76,0,0,1,4.52,2.28C51.18,194.93,51.83,195.73,52.9,195.63Z"/><path class="cls-9" d="M112.25,155.29c-.56-.95-1.64-1.09-2.48-1.61-.57-.36-1.34-.49-1.43-1.35,3,1,5.54,2.91,8.27,4.44,6,3.37,12,6.92,18,10.4.39.22.81.41.94.9a2.16,2.16,0,0,1-1.44-.39c-6.85-4-13.72-8-20.58-12A2.57,2.57,0,0,0,112.25,155.29Z"/><path class="cls-1" d="M15.68,161.11c4-1.88,7.75-4.32,11.64-6.44,1.56-.85,2.93-2.07,4.73-2.45-1.83,1.87-4.28,2.78-6.46,4.08-3.26,1.95-6.53,3.85-9.81,5.75-2.15,1.24-3.78,1.19-5.3-.11,1.08-.21,2.19.81,3.26-.05.53-.06,1.13.17,1.54-.39Z"/><path class="cls-1" d="M63,126.21c-2.74-.81-4.9-2.71-7.41-4-3-1.51-5.88-3.32-8.8-5-.37-.22-.84-.4-.89-.94,2.9.92,5.27,2.84,7.9,4.25,2.87,1.54,5.68,3.19,8.49,4.82C62.62,125.52,62.79,125.91,63,126.21Z"/><path class="cls-1" d="M58.33,146a.79.79,0,0,1-.81-.46,39.51,39.51,0,0,1,10.54-6,2.32,2.32,0,0,1,2.89.9c-4.82-.63-8.18,2.59-12,4.58C58.65,145.19,58.53,145.66,58.33,146Z"/><path class="cls-9" d="M96.49,145.53c-2.28-.53-4.16-1.9-6.06-3.13-2.72-1.78-5.35-3-8.49-1.1a3.4,3.4,0,0,1,4.11-1.68A40.1,40.1,0,0,1,96.49,145.53Z"/><path class="cls-1" d="M32.55,184.46a1.89,1.89,0,0,1,1.35.31c.28.45.74.37,1.16.39h0c2.13,2.07,4.94,3.07,7.36,4.67.95.63,2.36.68,2.76,2-3-1-5.57-3-8.35-4.58C35.34,186.48,33.64,185.92,32.55,184.46Z"/><path class="cls-1" d="M82.39,119.61c4.13,2.06,6.78-1.25,9.91-2.76a3.65,3.65,0,0,1,2.13-.71,22.78,22.78,0,0,1-8.38,4.68C84.79,121.19,83.22,121.19,82.39,119.61Z"/><path class="cls-1" d="M39.7,147.82c2.23-2.21,5.2-3.23,7.8-4.82,1.72-1.06,3.33-2.46,5.43-2.82-2,2-4.78,3-7.21,4.48C43.78,145.82,42,147.24,39.7,147.82Z"/><path class="cls-9" d="M81.05,46.66a9.47,9.47,0,0,0-1-2.41,3.61,3.61,0,0,0-6.18.15c-.26.42-.32,1-.88,1.18a4.09,4.09,0,0,1,4.65-3.69A4,4,0,0,1,81.05,46.66Z"/><path class="cls-1" d="M26.14,104.88c-1.32.05-2.23-.91-3.25-1.49a61,61,0,0,1-8.37-5.18c3.31,1,6,3.24,9,4.87C24.44,103.58,25.62,103.78,26.14,104.88Z"/><path class="cls-9" d="M98.28,147.15c-.29-.74-1.49-.57-1.55-1.54A59.85,59.85,0,0,1,108,152.19c-2.48-.67-4.47-2.29-6.65-3.52a3.52,3.52,0,0,0-2.28-.75h0A.71.71,0,0,0,98.28,147.15Z"/><path class="cls-1" d="M45.56,116.12,42.43,115c-2.14-2.08-5-2.94-7.46-4.6-.34-.24-.64-.38-.68-.82A59.08,59.08,0,0,1,45.56,116.12Z"/><path class="cls-1" d="M21.06,177.8c1.71.29,2.91,1.83,4.7,1.93,1,1.6,2.89,2,4.34,3,.47.32,1,.45,1.1,1.12A53.39,53.39,0,0,1,21.06,177.8Z"/><path class="cls-3" d="M137.34,161.16c.19,0,.43-.1.57,0a7.06,7.06,0,0,0,6.43.33C142.21,163.44,139.7,163.33,137.34,161.16Z"/><path class="cls-1" d="M13.67,98a6.84,6.84,0,0,0-5.43,3A4.06,4.06,0,0,1,13.67,98Z"/><path class="cls-1" d="M64.14,133.38a6.71,6.71,0,0,0,0-6A4,4,0,0,1,64.14,133.38Z"/><path class="cls-1" d="M17.23,169.28a6.5,6.5,0,0,0,0,5.86A3.87,3.87,0,0,1,17.23,169.28Z"/><path class="cls-1" d="M56,146.32a12.79,12.79,0,0,1-5.2,3.1A12.3,12.3,0,0,1,56,146.32Z"/><path class="cls-1" d="M58.33,137.13c1.38-1.58,3.3-2.29,5.13-3.13A11.38,11.38,0,0,1,58.33,137.13Z"/><path class="cls-1" d="M34.05,109.48a9,9,0,0,1-4.8-2.89A13.85,13.85,0,0,1,34.05,109.48Z"/><path class="cls-1" d="M28.48,162.21A9.72,9.72,0,0,1,23.85,165,11.13,11.13,0,0,1,28.48,162.21Z"/><path class="cls-1" d="M80.42,115c.88,1.15.49,2.83,1.6,3.89a2.43,2.43,0,0,1,0,.38A3.44,3.44,0,0,1,80.42,115Z"/><path class="cls-1" d="M53.29,140c1-1.53,2.73-2,4.33-2.56A9.13,9.13,0,0,1,53.29,140Z"/><path class="cls-1" d="M57,114.63c1.73.44,3.42,1,4.41,2.64A11.68,11.68,0,0,1,57,114.63Z"/><path class="cls-1" d="M33.9,151.27c.84-1.33,2.24-1.71,3.61-2.13A7.14,7.14,0,0,1,33.9,151.27Z"/><path class="cls-3" d="M132.31,158.22c1.24-.25,2.13.07,2.42,1.43A3.68,3.68,0,0,1,132.31,158.22Z"/><path class="cls-1" d="M50.2,149.73a4.19,4.19,0,0,1-2.77,1.67A3.56,3.56,0,0,1,50.2,149.73Z"/><path class="cls-1" d="M45.55,152.38c-.31,1.21-1.46,1-2.29,1.38A2.69,2.69,0,0,1,45.55,152.38Z"/><path class="cls-1" d="M62,117.38a2,2,0,0,1,2.18,1.46A3,3,0,0,1,62,117.38Z"/><path class="cls-1" d="M37.42,157.05c0,.08,0,.17,0,.24a5.5,5.5,0,0,1-1.95,1.15l-.11-.13A2.29,2.29,0,0,1,37.42,157.05Z"/><path class="cls-11" d="M121.16,108.74c-.38.81-.74,1.68-1.93,1.2A2.87,2.87,0,0,1,121.16,108.74Z"/><path class="cls-1" d="M73.5,144.06a2.08,2.08,0,0,1-.79-2A1.43,1.43,0,0,1,73.5,144.06Z"/><path class="cls-3" d="M134.87,159.66a2.06,2.06,0,0,1,2.19,1.4A3.3,3.3,0,0,1,134.87,159.66Z"/><path class="cls-1" d="M51.9,111.55A2.07,2.07,0,0,1,54.07,113,2.84,2.84,0,0,1,51.9,111.55Z"/><path class="cls-1" d="M28.63,106.38A2.28,2.28,0,0,1,26.54,105,2.47,2.47,0,0,1,28.63,106.38Z"/><path class="cls-1" d="M20.72,166.71a2.33,2.33,0,0,1-2.06,1.34A2.32,2.32,0,0,1,20.72,166.71Z"/><path class="cls-1" d="M31.19,160.66a2.22,2.22,0,0,1-1.94,1.23A2,2,0,0,1,31.19,160.66Z"/><path class="cls-1" d="M8.24,159.57c.85.29,1,1.09,1.26,1.79A1.56,1.56,0,0,1,8.24,159.57Z"/><path class="cls-1" d="M39,156.85l-.91,0a2.31,2.31,0,0,1,2.08-1.3Z"/><path class="cls-1" d="M54.32,113.08c.84-.11,1.55,0,1.69,1A1.85,1.85,0,0,1,54.32,113.08Z"/><path class="cls-1" d="M32.3,103.74c-.63-.14-1.27-.27-1.5-1C31.46,102.82,32.13,102.92,32.3,103.74Z"/><path class="cls-9" d="M80.06,49.05a1.73,1.73,0,0,1,.9-1.61C81.23,48.3,80.81,48.76,80.06,49.05Z"/><path class="cls-1" d="M72.53,141.74a1.87,1.87,0,0,1-1.4-1.21C71.85,140.64,72.48,140.85,72.53,141.74Z"/><path class="cls-1" d="M42.83,153.92c-.24.77-.89.89-1.55,1A1.5,1.5,0,0,1,42.83,153.92Z"/><path class="cls-1" d="M38.48,191.77c-.6-.15-1.24-.27-1.47-1A1.44,1.44,0,0,1,38.48,191.77Z"/><path class="cls-11" d="M106.16,143c.79-.16,1.3.11,1.43.94C106.86,144,106.49,143.52,106.16,143Z"/><path class="cls-1" d="M33.91,159.1a1.08,1.08,0,0,1-1.28.81C33,159.48,33.14,158.82,33.91,159.1Z"/><path class="cls-1" d="M32.35,152.1c.09-.74.65-.68,1.17-.68A.92.92,0,0,1,32.35,152.1Z"/><path class="cls-1" d="M70.36,120.4c0-.36-.11-.82.35-1,.29-.1.41.21.54.42A.82.82,0,0,1,70.36,120.4Z"/><path class="cls-1" d="M36.38,190.52a1.07,1.07,0,0,1-1.3-.75A1.39,1.39,0,0,1,36.38,190.52Z"/><path class="cls-1" d="M34.17,190.64a1.07,1.07,0,0,1,1.27.76A1.3,1.3,0,0,1,34.17,190.64Z"/><path class="cls-1" d="M39.68,192.53a1.26,1.26,0,0,1-1.13-.7C39.07,191.83,39.54,191.92,39.68,192.53Z"/><path class="cls-1" d="M39,148.12l.57-.23c-.11.2,0,.55-.41.52C39.14,148.41,39.09,148.22,39,148.12Z"/><path class="cls-1" d="M65.87,119.69c.54-.08.94,0,1,.68A1,1,0,0,1,65.87,119.69Z"/><path class="cls-1" d="M23.43,165.16c-.07.49-.4.62-.84.58C22.72,165.33,22.93,165,23.43,165.16Z"/><path class="cls-1" d="M21.88,166c-.1.4-.4.5-.77.51C21.23,166.16,21.39,165.85,21.88,166Z"/><path class="cls-1" d="M34.68,106.43a.68.68,0,0,1,.77.66A.82.82,0,0,1,34.68,106.43Z"/><path class="cls-1" d="M32,104.87c.35,0,.64.12.74.5C32.26,105.55,32.12,105.23,32,104.87Z"/><path class="cls-1" d="M30.74,104.13c.43,0,.75.1.84.57C31.1,104.79,30.9,104.5,30.74,104.13Z"/><path class="cls-1" d="M18.42,176.23a.68.68,0,0,1,.75.6C18.67,176.94,18.51,176.63,18.42,176.23Z"/><path class="cls-11" d="M108.88,144.54c.61-.12,1,.06,1,.75A1.15,1.15,0,0,1,108.88,144.54Z"/><path class="cls-1" d="M32.72,189.82c.39,0,.69.1.79.52C33,190.48,32.87,190.17,32.72,189.82Z"/><path class="cls-1" d="M49.19,110c.59-.1,1,.08,1,.73A1,1,0,0,1,49.19,110Z"/><path class="cls-1" d="M46.71,151.7a.69.69,0,0,1-.75.51C46.06,151.81,46.21,151.5,46.71,151.7Z"/><path class="cls-1" d="M35.42,191.39a.66.66,0,0,1,.81.53C35.76,192,35.57,191.75,35.42,191.39Z"/><path class="cls-1" d="M50.39,110.76c.54-.08.92.08,1,.69C50.84,111.49,50.59,111.16,50.39,110.76Z"/><path class="cls-1" d="M29.24,72.7a.77.77,0,0,1-.74.39C28.63,72.73,28.7,72.26,29.24,72.7Z"/><path class="cls-1" d="M35.1,189.78c-.41,0-.72-.09-.81-.54C34.76,189.13,35,189.42,35.1,189.78Z"/><path class="cls-10" d="M15.28,161.5c-.41.56-1,.33-1.54.39C14,160.62,14.68,161.29,15.28,161.5Z"/><path class="cls-8" d="M98.28,147.15a.71.71,0,0,1,.78.77A.7.7,0,0,1,98.28,147.15Z"/><path class="cls-4" d="M35.06,185.16c-.42,0-.88.06-1.16-.39C34.55,184.13,34.91,184.34,35.06,185.16Z"/><path class="cls-12" d="M35.49,158.44a5.5,5.5,0,0,0,1.95-1.15c1,1.3-.67,1.1-1,1.61S35.57,159.12,35.49,158.44Z"/><path class="cls-6" d="M70.09,49.71c.42-.66.75-1.08,1.63-.94C71.23,49.21,71.06,49.81,70.09,49.71Z"/><path class="cls-6" d="M67.75,51.11s0,.1,0,.11a.37.37,0,0,1-.15,0l0-.2Z"/><path class="cls-6" d="M68.69,50.35l.14-.06,0,.21c-.05,0-.11,0-.15,0S68.7,50.39,68.69,50.35Z"/><path class="cls-9" d="M27.42,74.39s0,.14-.05.14a.55.55,0,0,1-.17,0s0-.14.05-.14A.55.55,0,0,1,27.42,74.39Z"/></svg>