<svg id="레이어_1" data-name="레이어 1" xmlns="http://www.w3.org/2000/svg" viewBox="0 0 512 256"><defs><style>.cls-1{fill:#343434;}.cls-2{fill:#353535;}.cls-3{fill:#272223;}.cls-4{fill:#262122;}.cls-5{fill:#ff8b00;}.cls-6{fill:#006fb4;}.cls-7{fill:#f9006a;}.cls-8{fill:#26b635;}.cls-9{fill:#0170b4;}.cls-10{fill:#2bb739;}</style></defs><path class="cls-1" d="M176.7,155.63v1.62c0,4.23-.07,8.46.2,12.69a17.76,17.76,0,0,1-.13,3.49,5.55,5.55,0,0,1-3.35,4.42,20.09,20.09,0,0,1-6.23,1.65c-.75.1-1.51.16-2.23.24a1.41,1.41,0,0,1-.21-1.09c0-5.17-.1-10.35-.11-15.52q-.06-13,0-25.92c0-7,.1-14,.16-20.92,0-1.2.18-1.52,1.34-1.81a16.05,16.05,0,0,1,7.36,0,1.86,1.86,0,0,1,1.52,1.82,6.67,6.67,0,0,1-.08,1.61,11.22,11.22,0,0,0-.09,2.65c.61.17.79-.29,1-.55a31.14,31.14,0,0,1,4.81-3.91A17.75,17.75,0,0,1,195.43,114a13.8,13.8,0,0,1,8.51,7,26.12,26.12,0,0,1,2.93,9.34,45,45,0,0,1-.23,14.37,25.16,25.16,0,0,1-2.84,8c-3.33,5.78-8.33,8.6-15,8.57a14,14,0,0,1-9-3.15Zm-.08-18.34h0c0,1.08,0,2.16,0,3.24-.14,4.39-.21,3.79,2.74,6.84a12.38,12.38,0,0,0,4.4,3.06,6.67,6.67,0,0,0,8-2.19,12.5,12.5,0,0,0,1.95-3.83,25.24,25.24,0,0,0,1-10.54,16.61,16.61,0,0,0-1.8-6.45,6.77,6.77,0,0,0-6.13-3.75,8,8,0,0,0-5.17,1.67,29.49,29.49,0,0,0-4,3.82,3.69,3.69,0,0,0-.93,2.6C176.65,133.6,176.62,135.45,176.62,137.29Z"/><path class="cls-2" d="M311,132.56c2.08-2.46,3.87-4.94,5.67-7.4s3.59-5,5.4-7.43c.5-.69,1.05-1.34,1.6-2a4,4,0,0,1,2.55-1.37,25.31,25.31,0,0,1,8.33,0c2.44.44,2.43,1.94,1.66,3.55a10.05,10.05,0,0,1-1.67,2.28l-9.78,11c-.38.44-.76.89-1.13,1.34-.76.93-.76.94-.11,1.95L337,155.37a10.16,10.16,0,0,1,1,1.88c.59,1.52.24,2.34-1.31,2.77a19.33,19.33,0,0,1-6.3.5c-.76,0-1.52-.15-2.28-.21a4.33,4.33,0,0,1-3.59-2.26c-1.67-2.78-3.43-5.5-5.15-8.25l-7.17-11.43c-.33-.53-.7-1-1.06-1.57-.46.27-.29.66-.29,1,0,3.78-.05,7.56.09,11.34,0,.86,0,1.71,0,2.57a5.51,5.51,0,0,1-3.29,5,16.41,16.41,0,0,1-2,.81,37.11,37.11,0,0,1-6.09,1.13c-.52.07-.77-.08-.74-.64,0-.36,0-.72,0-1.08q0-26,0-52c0-2.43-.11-4.86-.11-7.29,0-2.69.39-3.2,3.08-3.64a18.43,18.43,0,0,1,7,.17c1.74.38,2.15.89,2.15,2.71,0,3.51-.05,7-.06,10.53q0,11.76,0,23.51A3.65,3.65,0,0,0,311,132.56Z"/><path class="cls-1" d="M137.66,97.51A29.31,29.31,0,0,1,147.08,99q1.08.38,2.13.84a4.43,4.43,0,0,1,3,3.95,20.45,20.45,0,0,1-.11,6.05c-.36,1.62-1,1.92-2.51,1.25-.62-.26-1.2-.61-1.8-.91a24.72,24.72,0,0,0-9.74-2.94,10.63,10.63,0,0,0-4.64.66,6.27,6.27,0,0,0-2.45,10,12.26,12.26,0,0,0,3.78,2.79c1.91,1,3.92,1.79,5.9,2.66a50.54,50.54,0,0,1,6.83,3.5,18.67,18.67,0,0,1,6.5,6.54,17.36,17.36,0,0,1,1.76,11.26c-1.13,8.14-6.2,12.94-13.71,15.37-6,1.93-12,1.55-18-.1a26.89,26.89,0,0,1-5-1.95,5.86,5.86,0,0,1-3.42-5.39,19.14,19.14,0,0,1,.23-4.84c.38-1.69,1.16-2.11,2.72-1.43.53.24,1,.54,1.54.83A27.4,27.4,0,0,0,132.32,151a12.29,12.29,0,0,0,6.91-1.39,7,7,0,0,0,3.35-8.19,7.07,7.07,0,0,0-3.13-3.93,48.08,48.08,0,0,0-6.29-3.37c-2.57-1.2-5.17-2.32-7.62-3.76a17.56,17.56,0,0,1-7.68-8.59c-2.52-6.19-.81-14.66,3.9-19a19.75,19.75,0,0,1,9.34-4.56A29,29,0,0,1,137.66,97.51Z"/><path class="cls-2" d="M242.35,155.49c-.85.69-1.57,1.3-2.31,1.88-5.8,4.59-12.22,4.93-18.85,2.37-4.92-1.9-7.34-5.85-7.75-11.06a15.41,15.41,0,0,1,.37-4.83,11.9,11.9,0,0,1,7-8.36,26.88,26.88,0,0,1,8.45-2.18,71.5,71.5,0,0,1,10.24-.45c.64,0,1-.09,1-.85a22,22,0,0,0-.33-4.44,5.93,5.93,0,0,0-5.81-5.06,21.67,21.67,0,0,0-10.54,1.75c-1.36.58-2.68,1.27-4,1.91-2.32,1.12-3.23.69-3.83-1.85a11.51,11.51,0,0,1-.1-4.3,3.67,3.67,0,0,1,1.39-2.39,8.75,8.75,0,0,1,2.19-1.32,35.23,35.23,0,0,1,21.65-2.19,21.65,21.65,0,0,1,2.71.82,11.53,11.53,0,0,1,7.95,9.68,39.33,39.33,0,0,1,.51,6.32q0,13.17,0,26.33c0,1.64.22,1.38-1.4,1.6a11.71,11.71,0,0,1-4.29-.3A5.91,5.91,0,0,1,242.35,155.49Zm-1.67-9.93a25.74,25.74,0,0,1-.27-4.56c0-.53-.28-.58-.68-.58-1.35,0-2.7,0-4,0a22.54,22.54,0,0,0-6.77,1,5.27,5.27,0,0,0-3.67,5.12,5.33,5.33,0,0,0,3.2,5.43,7.55,7.55,0,0,0,4.47.63c2.51-.41,4.42-1.88,6.27-3.48A4.14,4.14,0,0,0,240.68,145.56Z"/><path class="cls-3" d="M441.62,154c-.82,3.48-3.77,5.29-6.89,4.48a.53.53,0,0,1-.45-.56c0-.36,0-.72,0-1.08q0-24.37,0-48.74,0-5-.14-10c0-.81,0-1.62.09-2.43a1.76,1.76,0,0,1,1.6-1.72,10.82,10.82,0,0,1,5.21.3c1,.32,1.16.55,1.17,1.66q0,8.24.05,16.47c0,2.69,0,5.38,0,8.21a3.58,3.58,0,0,0,1.26-.9,23.94,23.94,0,0,1,5.09-3.76c5.73-2.86,11.43-2.9,17,.51a15.16,15.16,0,0,1,5.62,6.92,27.79,27.79,0,0,1,2.31,9.38,40.58,40.58,0,0,1-.94,13.8,26.74,26.74,0,0,1-1.68,4.69c-3.13,6.65-8.42,9.83-15.72,9.75a17.21,17.21,0,0,1-11.93-5.23c-.26-.24-.52-.5-.76-.76S442,154.42,441.62,154Zm.52-16.29h.16c-.06,1.44-.12,2.88-.2,4.31a24.64,24.64,0,0,0,0,3.1,3.34,3.34,0,0,0,1.07,2.25c.95,1,1.88,1.94,2.85,2.87a16.35,16.35,0,0,0,4.63,3.21,8.89,8.89,0,0,0,11.49-3.28,16.65,16.65,0,0,0,2.16-4.62,30.33,30.33,0,0,0,.77-13.88,17.09,17.09,0,0,0-2.56-6.89,8.34,8.34,0,0,0-5.79-3.82,10.85,10.85,0,0,0-8.95,2.43c-1,.87-1.93,1.9-3,2.71a7,7,0,0,0-2.74,6.9c0,.27.05.54.05.8C442.14,135.07,442.14,136.37,442.14,137.67Z"/><path class="cls-3" d="M413.08,155.14a10.28,10.28,0,0,0-1.85,1.41c-5.86,4.8-12.38,5.77-19.34,3-4.61-1.87-6.87-5.61-7.19-10.53a14.82,14.82,0,0,1,.36-4.69,11.34,11.34,0,0,1,5.33-7.17,22.07,22.07,0,0,1,7.71-2.72,62.44,62.44,0,0,1,11.83-.81c2.35,0,2,.49,2.09-2.05a18.44,18.44,0,0,0-.29-4.57,7.65,7.65,0,0,0-7.26-6.65,19.88,19.88,0,0,0-8.1,1,37.57,37.57,0,0,0-6.9,3c-1,.57-1.48.44-2.1-.53a4.59,4.59,0,0,1,1.1-5.92,11.11,11.11,0,0,1,1.87-1.06,31.86,31.86,0,0,1,15.07-3,23.71,23.71,0,0,1,4.66.75c5,1.35,8,4.62,9.22,9.58a29.55,29.55,0,0,1,.77,7.37c-.09,8.87-.27,17.73-.17,26.6,0,.74-.25,1-.93.87-.49-.06-1,0-1.48-.09C415.27,158.64,413.46,157.84,413.08,155.14Zm-6.19-15.69v.1c-1.39,0-2.79-.08-4.17,0a14.92,14.92,0,0,0-6.34,1.64,6.46,6.46,0,0,0-3.49,6.74c.33,3,1.64,5.4,4.72,6.45a10.19,10.19,0,0,0,7-.34,19.8,19.8,0,0,0,5.94-3.88,4.56,4.56,0,0,0,1.7-3.77c0-.5,0-1-.06-1.48a24,24,0,0,1-.23-4.71c0-.61-.18-.78-.75-.77C409.77,139.47,408.33,139.45,406.89,139.45Z"/><path class="cls-1" d="M274.68,120.74c.45-.54.9-1.07,1.34-1.61a22.51,22.51,0,0,1,3.7-3.73c3.11-2.34,6.52-2.56,10.12-1.44a2,2,0,0,1,1.43,1.63,9.1,9.1,0,0,1,.22,1.73c0,1.67,0,3.33,0,5a7.32,7.32,0,0,1,0,.81c-.21,2.45-1,3-3.36,2.2a9.83,9.83,0,0,0-2.45-.7,6.55,6.55,0,0,0-5.46,2.15,51.2,51.2,0,0,0-3.71,5,1.8,1.8,0,0,0-.18,1.18c0,6.07,0,12.15,0,18.22,0,3.8-1.11,5.48-4.71,6.76a25.69,25.69,0,0,1-6.61,1.21c-.61,0-.8-.15-.8-.73,0-1.85,0-3.69,0-5.54q0-16.07,0-32.13c0-1.4-.06-2.79,0-4.19s.32-1.78,1.74-2.13a15.13,15.13,0,0,1,6.56-.11c1.91.38,2.35,1.07,2.18,3.06-.07.85-.14,1.7-.17,2.55A.85.85,0,0,0,274.68,120.74Z"/><path class="cls-3" d="M495.73,161a30.76,30.76,0,0,1-10.23-1.77c-3.11-1.15-4.35-2.23-3.81-6.67a2.94,2.94,0,0,1,.16-.65c.47-1.38.85-1.56,2.19-.94.73.34,1.42.77,2.12,1.17a18.25,18.25,0,0,0,12.1,2.21,8.31,8.31,0,0,0,2.55-.84,6.06,6.06,0,0,0,1.11-10.14,13.41,13.41,0,0,0-3.51-2c-2-.81-4-1.59-6-2.41a23.4,23.4,0,0,1-5.08-2.77,11.27,11.27,0,0,1-4.66-9.94c.11-5.46,3.4-9.79,9.43-11.55a22.47,22.47,0,0,1,14.3.65,4.67,4.67,0,0,1,3.48,5,8.34,8.34,0,0,1-.15,1.87c-.29,1.1-.89,1.4-1.92.93-.57-.25-1.09-.63-1.64-.92a16.43,16.43,0,0,0-11.5-1.6,5.45,5.45,0,0,0-4.22,3.77,5.11,5.11,0,0,0,1.49,5.76,12.79,12.79,0,0,0,3.76,2.35c1.74.74,3.49,1.42,5.24,2.14a30.75,30.75,0,0,1,6,3,10.59,10.59,0,0,1,4.6,6.28c1.45,6.07-.51,12.12-7,15.17A21.33,21.33,0,0,1,495.73,161Z"/><path class="cls-4" d="M378.19,159.9a1.84,1.84,0,0,1-1,.14l-24.45.1a21.81,21.81,0,0,1-2.29-.09c-2-.21-2.69-1-2.82-2.93s.05-3.87.05-5.81q0-23.57,0-47.14c0-1.26,0-2.52,0-3.78s.4-1.73,1.59-2a9.51,9.51,0,0,1,5.7.4,1.24,1.24,0,0,1,.84,1.35c0,2.7.05,5.4.06,8.1q0,9.25.06,18.51c0,8,0,16.11-.06,24.17v.81c0,1.17,0,1.18,1.2,1.18l11.88-.07a19.54,19.54,0,0,1,4.7.41,4.41,4.41,0,0,1,3.38,3C377.45,157.43,377.81,158.68,378.19,159.9Z"/><path class="cls-5" d="M46.93,139.1l-11.4,3.24-31.1,8.93c-1.72.49-1.7.49-2.08-1.3Q1.24,144.76.11,139.56c-.22-1-.2-1.08.85-1.07,4.91,0,9.81.12,14.71.16l25.79.14c1.82,0,3.64,0,5.46,0Z"/><path class="cls-6" d="M49.65,111.48c-2.55-.51-5.11-1-7.65-1.54q-17.87-3.84-35.71-7.71c-1-.21-1-.22-.75-1.22C6.29,98.09,7,95.16,7.93,92.3c.6-1.87.45-1.67,2-.89L38.3,105.58c3.34,1.66,6.7,3.29,10.05,4.93.47.23.94.48,1.41.73Z"/><path class="cls-5" d="M80,141.9c-2.25,1.35-4.51,2.71-6.77,4-9.29,5.48-18.59,10.94-28,16.29l-.35.21c-1,.57-1.06.58-1.56-.5q-1.87-4-3.71-8.09c-.46-1-.43-1.05.66-1.35l30.81-8.39L78.85,142c.34-.1.69-.15,1-.22Z"/><path class="cls-7" d="M80.06,126.83c-4.14,0-8.28,0-12.42,0q-7.91,0-15.8-.12-8.51-.08-17-.19c-1,0-1,0-1-1.08-.07-2.56-.05-5.13-.25-7.69-.08-1,0-1.08,1.07-.87q4,.81,7.91,1.67l36,7.74,1.55.37Z"/><path class="cls-8" d="M85.83,115c-2.45-.89-4.78-2.07-7.14-3.15Q63.75,104.93,48.83,98a1.38,1.38,0,0,1-.82-.61c.49-.68,1-1.42,1.54-2.12,1.41-1.81,2.84-3.61,4.26-5.41.56-.71.57-.72,1.34-.11,3.66,2.91,7.32,5.81,11,8.74q9.73,7.8,19.45,15.63c.2.17.38.37.57.56Z"/><path class="cls-8" d="M54.73,130.6l33.38,2.92,0,.22c-.38.13-.76.28-1.14.4-8.75,2.74-17.62,5.06-26.45,7.52l-1.44.39c-1,.26-1,.26-1.31-.7q-1.05-3.56-2.08-7.12C55.41,133.12,55.12,132,54.73,130.6Z"/><path class="cls-5" d="M70.28,90.33c-1.12-1-2.13-1.85-3.12-2.74-9.7-8.66-19.39-17.34-28.94-26.17-.56-.51-1.13-1-1.66-1.58-.32-.32-.3-.64.2-.8,2.3-.77,4.58-1.62,6.81-2.57.64-.28.91.13,1.21.52l4,5.26q10.37,13.57,20.9,27A2,2,0,0,1,70.28,90.33Z"/><path class="cls-8" d="M60,167.11a51.76,51.76,0,0,1-4.6,4.53q-11.23,10.5-22.52,20.94c-.74.69-.74.7-1.53.07l-5-4.1a3.12,3.12,0,0,1-.9-1c.06-.38.4-.46.65-.61Q42.51,177.15,59,167.37a8.26,8.26,0,0,1,.85-.4Z"/><path class="cls-5" d="M60.2,108.06,91.26,125l-.05.17c-1.86-.39-3.73-.76-5.58-1.18l-25.89-5.92-.39-.1c-.69-.14-1.62,0-2-.62s.22-1.27.41-1.91c.62-2.16,1.26-4.32,1.9-6.47A1.44,1.44,0,0,1,60.2,108.06Z"/><path class="cls-7" d="M92.85,104.61C85,94.49,77.1,84.5,69.5,74.34c.41-.59.81-.49,1.13-.56,1.72-.36,3.46-.63,5.15-1.07.8-.2,1.11,0,1.45.7,3,6,6.08,12,9.11,18.08q2.82,5.6,5.6,11.23C92.25,103.35,92.55,104,92.85,104.61Z"/><path class="cls-9" d="M87.75,154.1c.16.48-.22.75-.44,1.06-5.87,8.58-11.91,17-17.94,25.51-.62.86-.64.87-1.65.53-2.07-.71-4.14-1.45-6.42-2.25.8-.79,1.45-1.45,2.12-2.08L87,154.68a8.6,8.6,0,0,1,.75-.56Z"/><path class="cls-9" d="M96.41,117.94c-5.11-4.36-10.22-8.7-15.3-13.07-2.94-2.52-5.84-5.08-8.75-7.63a3.72,3.72,0,0,1-1-1.06c2.06-1.12,4.1-2.22,6.13-3.35.63-.35.86,0,1.17.44q3.28,4.55,6.58,9.07l10.41,14.31a2.67,2.67,0,0,1,.71,1.27Z"/><path class="cls-7" d="M92.35,143a51,51,0,0,1-4.66,4.64c-4,3.88-8,7.72-12.06,11.6-.87.84-1.68,1.75-2.51,2.64-.36.37-.75.51-1.18.14-2-1.73-4.24-3.19-6.15-5,.1-.46.45-.51.71-.64,8.23-4.24,16.41-8.59,24.57-13,.39-.22.74-.71,1.31-.42Z"/><path class="cls-7" d="M84.23,173.68c-1.22,2.79-2.41,5.59-3.66,8.37-2.42,5.41-4.9,10.8-7.3,16.21a1.62,1.62,0,0,1-1.7,1.16,35.92,35.92,0,0,0-5,.27,3.73,3.73,0,0,1-.66,0C66.27,198.49,80.89,177.51,84.23,173.68Z"/><path class="cls-10" d="M75.69,56.3l3.07.38c.71.08,1.43.19,2.15.2a1.4,1.4,0,0,1,1.51,1.18c1.38,4.65,2.83,9.28,4.24,13.92,1.23,4,2.44,8.08,3.66,12.13C89.32,83,76.67,59,75.69,56.3Z"/><path class="cls-5" d="M102.55,116.42C98.46,108.73,94.4,101,90.59,93c2.09,0,3.89.4,5.72.6.54.06.57.46.67.86.58,2.27,1.17,4.53,1.74,6.8Q100.64,108.84,102.55,116.42Z"/><path class="cls-5" d="M84.85,164.62c.65-1.42,10.36-14.44,12.52-16.83a.92.92,0,0,1-.08.86c-2,5-3.89,10.07-5.75,15.13-.21.57-.46.88-1.15.86C88.59,164.58,86.79,164.62,84.85,164.62Z"/><path class="cls-9" d="M101.24,165.53c0,1.48.06,3,0,4.43-.19,4-.45,8-.63,12a1.59,1.59,0,0,1-1.06,1.63c-1.64.73-3.24,1.56-5.12,2.47C96.33,179,99,172.34,101.24,165.53Z"/><path class="cls-10" d="M97.21,159c-.46,2.18-.91,4.37-1.39,6.54-.91,4.18-1.83,8.34-2.75,12.51-.28,1.32-.29,1.31-1.63,1.48s-2.55.34-4,.54C90.52,172.82,93.84,165.91,97.21,159Z"/><path class="cls-9" d="M95.88,83.61a25.6,25.6,0,0,1,4.18.21c.51,0,.54.39.58.75.11,1,.2,2,.31,3q.78,7.44,1.57,14.88a3.53,3.53,0,0,1,0,1C100.14,96.92,98,90.37,95.88,83.61Z"/><path class="cls-7" d="M105.24,94.47c-1.66-6.32-2.81-12.74-4.16-19.17a19.75,19.75,0,0,1,4,.23c.5,0,.51.39.5.78,0,1.48-.08,3-.1,4.45Q105.32,87.62,105.24,94.47Z"/><path class="cls-10" d="M104.48,102.31c1.29.24,2.34.45,3.4.63.55.08.75.34.7.9-.13,1.3-.21,2.6-.32,3.9-.27,3-.54,6-.91,9C106.14,112.07,105.45,107.28,104.48,102.31Z"/><path class="cls-5" d="M100,159.64l3.79-12a69.89,69.89,0,0,1,1.35,9.1c0,.4.08.79-.41,1-1.38.65-2.74,1.34-4.11,2A.5.5,0,0,1,100,159.64Z"/><path class="cls-10" d="M85.83,115l.31-.28a1.8,1.8,0,0,1,.87.69A1.42,1.42,0,0,1,85.83,115Z"/><polygon class="cls-9" points="96.39 117.92 96.44 117.95 96.41 117.94 96.39 117.92"/><path class="cls-7" d="M92.38,143.06c-.11-.07-.11-.15,0-.2s.12,0,.12,0,0,.16-.15.16Z"/><path class="cls-9" d="M87.77,154.12l.15-.17c.06.18,0,.22-.17.15Z"/><path class="cls-8" d="M60.49,166.55c.08-.1,0,0,0,0Z"/><path class="cls-8" d="M60.22,166.83c0-.2.11-.25.27-.28l0,0c0,.2-.09.27-.26.28Z"/><path class="cls-8" d="M59.81,167a.33.33,0,0,1,.41-.14l0,0a.25.25,0,0,1-.24.3Z"/></svg>